G75*
%MOIN*%
%OFA0B0*%
%FSLAX24Y24*%
%IPPOS*%
%LPD*%
%AMOC8*
5,1,8,0,0,1.08239X$1,22.5*
%
%ADD10C,0.0000*%
%ADD11C,0.0512*%
%ADD12C,0.1300*%
%ADD13R,0.0840X0.0300*%
%ADD14R,0.0434X0.0473*%
%ADD15R,0.0355X0.0355*%
%ADD16R,0.0473X0.0434*%
%ADD17R,0.0453X0.0465*%
%ADD18C,0.0560*%
%ADD19R,0.0465X0.0453*%
%ADD20R,0.0257X0.0512*%
%ADD21R,0.0827X0.1024*%
%ADD22R,0.0827X0.1339*%
%ADD23R,0.0237X0.1260*%
%ADD24C,0.0394*%
%ADD25R,0.0591X0.0591*%
%ADD26R,0.0434X0.0709*%
%ADD27R,0.0840X0.0840*%
%ADD28C,0.0840*%
%ADD29R,0.0827X0.0631*%
%ADD30OC8,0.0670*%
%ADD31C,0.0670*%
%ADD32R,0.0749X0.0434*%
D10*
X000159Y001847D02*
X000159Y017595D01*
X016694Y017595D01*
X016694Y001847D01*
X000159Y001847D01*
X001399Y002910D02*
X001401Y002940D01*
X001407Y002970D01*
X001416Y002999D01*
X001429Y003026D01*
X001446Y003051D01*
X001465Y003074D01*
X001488Y003095D01*
X001513Y003112D01*
X001539Y003126D01*
X001568Y003136D01*
X001597Y003143D01*
X001627Y003146D01*
X001658Y003145D01*
X001688Y003140D01*
X001717Y003131D01*
X001744Y003119D01*
X001770Y003104D01*
X001794Y003085D01*
X001815Y003063D01*
X001833Y003039D01*
X001848Y003012D01*
X001859Y002984D01*
X001867Y002955D01*
X001871Y002925D01*
X001871Y002895D01*
X001867Y002865D01*
X001859Y002836D01*
X001848Y002808D01*
X001833Y002781D01*
X001815Y002757D01*
X001794Y002735D01*
X001770Y002716D01*
X001744Y002701D01*
X001717Y002689D01*
X001688Y002680D01*
X001658Y002675D01*
X001627Y002674D01*
X001597Y002677D01*
X001568Y002684D01*
X001539Y002694D01*
X001513Y002708D01*
X001488Y002725D01*
X001465Y002746D01*
X001446Y002769D01*
X001429Y002794D01*
X001416Y002821D01*
X001407Y002850D01*
X001401Y002880D01*
X001399Y002910D01*
X004348Y004044D02*
X004350Y004070D01*
X004356Y004096D01*
X004366Y004121D01*
X004379Y004144D01*
X004395Y004164D01*
X004415Y004182D01*
X004437Y004197D01*
X004460Y004209D01*
X004486Y004217D01*
X004512Y004221D01*
X004538Y004221D01*
X004564Y004217D01*
X004590Y004209D01*
X004614Y004197D01*
X004635Y004182D01*
X004655Y004164D01*
X004671Y004144D01*
X004684Y004121D01*
X004694Y004096D01*
X004700Y004070D01*
X004702Y004044D01*
X004700Y004018D01*
X004694Y003992D01*
X004684Y003967D01*
X004671Y003944D01*
X004655Y003924D01*
X004635Y003906D01*
X004613Y003891D01*
X004590Y003879D01*
X004564Y003871D01*
X004538Y003867D01*
X004512Y003867D01*
X004486Y003871D01*
X004460Y003879D01*
X004436Y003891D01*
X004415Y003906D01*
X004395Y003924D01*
X004379Y003944D01*
X004366Y003967D01*
X004356Y003992D01*
X004350Y004018D01*
X004348Y004044D01*
X006080Y004044D02*
X006082Y004070D01*
X006088Y004096D01*
X006098Y004121D01*
X006111Y004144D01*
X006127Y004164D01*
X006147Y004182D01*
X006169Y004197D01*
X006192Y004209D01*
X006218Y004217D01*
X006244Y004221D01*
X006270Y004221D01*
X006296Y004217D01*
X006322Y004209D01*
X006346Y004197D01*
X006367Y004182D01*
X006387Y004164D01*
X006403Y004144D01*
X006416Y004121D01*
X006426Y004096D01*
X006432Y004070D01*
X006434Y004044D01*
X006432Y004018D01*
X006426Y003992D01*
X006416Y003967D01*
X006403Y003944D01*
X006387Y003924D01*
X006367Y003906D01*
X006345Y003891D01*
X006322Y003879D01*
X006296Y003871D01*
X006270Y003867D01*
X006244Y003867D01*
X006218Y003871D01*
X006192Y003879D01*
X006168Y003891D01*
X006147Y003906D01*
X006127Y003924D01*
X006111Y003944D01*
X006098Y003967D01*
X006088Y003992D01*
X006082Y004018D01*
X006080Y004044D01*
X001813Y011690D02*
X001815Y011720D01*
X001821Y011750D01*
X001830Y011779D01*
X001843Y011806D01*
X001860Y011831D01*
X001879Y011854D01*
X001902Y011875D01*
X001927Y011892D01*
X001953Y011906D01*
X001982Y011916D01*
X002011Y011923D01*
X002041Y011926D01*
X002072Y011925D01*
X002102Y011920D01*
X002131Y011911D01*
X002158Y011899D01*
X002184Y011884D01*
X002208Y011865D01*
X002229Y011843D01*
X002247Y011819D01*
X002262Y011792D01*
X002273Y011764D01*
X002281Y011735D01*
X002285Y011705D01*
X002285Y011675D01*
X002281Y011645D01*
X002273Y011616D01*
X002262Y011588D01*
X002247Y011561D01*
X002229Y011537D01*
X002208Y011515D01*
X002184Y011496D01*
X002158Y011481D01*
X002131Y011469D01*
X002102Y011460D01*
X002072Y011455D01*
X002041Y011454D01*
X002011Y011457D01*
X001982Y011464D01*
X001953Y011474D01*
X001927Y011488D01*
X001902Y011505D01*
X001879Y011526D01*
X001860Y011549D01*
X001843Y011574D01*
X001830Y011601D01*
X001821Y011630D01*
X001815Y011660D01*
X001813Y011690D01*
X001813Y015048D02*
X001815Y015078D01*
X001821Y015108D01*
X001830Y015137D01*
X001843Y015164D01*
X001860Y015189D01*
X001879Y015212D01*
X001902Y015233D01*
X001927Y015250D01*
X001953Y015264D01*
X001982Y015274D01*
X002011Y015281D01*
X002041Y015284D01*
X002072Y015283D01*
X002102Y015278D01*
X002131Y015269D01*
X002158Y015257D01*
X002184Y015242D01*
X002208Y015223D01*
X002229Y015201D01*
X002247Y015177D01*
X002262Y015150D01*
X002273Y015122D01*
X002281Y015093D01*
X002285Y015063D01*
X002285Y015033D01*
X002281Y015003D01*
X002273Y014974D01*
X002262Y014946D01*
X002247Y014919D01*
X002229Y014895D01*
X002208Y014873D01*
X002184Y014854D01*
X002158Y014839D01*
X002131Y014827D01*
X002102Y014818D01*
X002072Y014813D01*
X002041Y014812D01*
X002011Y014815D01*
X001982Y014822D01*
X001953Y014832D01*
X001927Y014846D01*
X001902Y014863D01*
X001879Y014884D01*
X001860Y014907D01*
X001843Y014932D01*
X001830Y014959D01*
X001821Y014988D01*
X001815Y015018D01*
X001813Y015048D01*
X000710Y016414D02*
X000712Y016464D01*
X000718Y016514D01*
X000728Y016563D01*
X000742Y016611D01*
X000759Y016658D01*
X000780Y016703D01*
X000805Y016747D01*
X000833Y016788D01*
X000865Y016827D01*
X000899Y016864D01*
X000936Y016898D01*
X000976Y016928D01*
X001018Y016955D01*
X001062Y016979D01*
X001108Y017000D01*
X001155Y017016D01*
X001203Y017029D01*
X001253Y017038D01*
X001302Y017043D01*
X001353Y017044D01*
X001403Y017041D01*
X001452Y017034D01*
X001501Y017023D01*
X001549Y017008D01*
X001595Y016990D01*
X001640Y016968D01*
X001683Y016942D01*
X001724Y016913D01*
X001763Y016881D01*
X001799Y016846D01*
X001831Y016808D01*
X001861Y016768D01*
X001888Y016725D01*
X001911Y016681D01*
X001930Y016635D01*
X001946Y016587D01*
X001958Y016538D01*
X001966Y016489D01*
X001970Y016439D01*
X001970Y016389D01*
X001966Y016339D01*
X001958Y016290D01*
X001946Y016241D01*
X001930Y016193D01*
X001911Y016147D01*
X001888Y016103D01*
X001861Y016060D01*
X001831Y016020D01*
X001799Y015982D01*
X001763Y015947D01*
X001724Y015915D01*
X001683Y015886D01*
X001640Y015860D01*
X001595Y015838D01*
X001549Y015820D01*
X001501Y015805D01*
X001452Y015794D01*
X001403Y015787D01*
X001353Y015784D01*
X001302Y015785D01*
X001253Y015790D01*
X001203Y015799D01*
X001155Y015812D01*
X001108Y015828D01*
X001062Y015849D01*
X001018Y015873D01*
X000976Y015900D01*
X000936Y015930D01*
X000899Y015964D01*
X000865Y016001D01*
X000833Y016040D01*
X000805Y016081D01*
X000780Y016125D01*
X000759Y016170D01*
X000742Y016217D01*
X000728Y016265D01*
X000718Y016314D01*
X000712Y016364D01*
X000710Y016414D01*
X007407Y014072D02*
X007409Y014102D01*
X007415Y014132D01*
X007424Y014161D01*
X007437Y014188D01*
X007454Y014213D01*
X007473Y014236D01*
X007496Y014257D01*
X007521Y014274D01*
X007547Y014288D01*
X007576Y014298D01*
X007605Y014305D01*
X007635Y014308D01*
X007666Y014307D01*
X007696Y014302D01*
X007725Y014293D01*
X007752Y014281D01*
X007778Y014266D01*
X007802Y014247D01*
X007823Y014225D01*
X007841Y014201D01*
X007856Y014174D01*
X007867Y014146D01*
X007875Y014117D01*
X007879Y014087D01*
X007879Y014057D01*
X007875Y014027D01*
X007867Y013998D01*
X007856Y013970D01*
X007841Y013943D01*
X007823Y013919D01*
X007802Y013897D01*
X007778Y013878D01*
X007752Y013863D01*
X007725Y013851D01*
X007696Y013842D01*
X007666Y013837D01*
X007635Y013836D01*
X007605Y013839D01*
X007576Y013846D01*
X007547Y013856D01*
X007521Y013870D01*
X007496Y013887D01*
X007473Y013908D01*
X007454Y013931D01*
X007437Y013956D01*
X007424Y013983D01*
X007415Y014012D01*
X007409Y014042D01*
X007407Y014072D01*
X014883Y016414D02*
X014885Y016464D01*
X014891Y016514D01*
X014901Y016563D01*
X014915Y016611D01*
X014932Y016658D01*
X014953Y016703D01*
X014978Y016747D01*
X015006Y016788D01*
X015038Y016827D01*
X015072Y016864D01*
X015109Y016898D01*
X015149Y016928D01*
X015191Y016955D01*
X015235Y016979D01*
X015281Y017000D01*
X015328Y017016D01*
X015376Y017029D01*
X015426Y017038D01*
X015475Y017043D01*
X015526Y017044D01*
X015576Y017041D01*
X015625Y017034D01*
X015674Y017023D01*
X015722Y017008D01*
X015768Y016990D01*
X015813Y016968D01*
X015856Y016942D01*
X015897Y016913D01*
X015936Y016881D01*
X015972Y016846D01*
X016004Y016808D01*
X016034Y016768D01*
X016061Y016725D01*
X016084Y016681D01*
X016103Y016635D01*
X016119Y016587D01*
X016131Y016538D01*
X016139Y016489D01*
X016143Y016439D01*
X016143Y016389D01*
X016139Y016339D01*
X016131Y016290D01*
X016119Y016241D01*
X016103Y016193D01*
X016084Y016147D01*
X016061Y016103D01*
X016034Y016060D01*
X016004Y016020D01*
X015972Y015982D01*
X015936Y015947D01*
X015897Y015915D01*
X015856Y015886D01*
X015813Y015860D01*
X015768Y015838D01*
X015722Y015820D01*
X015674Y015805D01*
X015625Y015794D01*
X015576Y015787D01*
X015526Y015784D01*
X015475Y015785D01*
X015426Y015790D01*
X015376Y015799D01*
X015328Y015812D01*
X015281Y015828D01*
X015235Y015849D01*
X015191Y015873D01*
X015149Y015900D01*
X015109Y015930D01*
X015072Y015964D01*
X015038Y016001D01*
X015006Y016040D01*
X014978Y016081D01*
X014953Y016125D01*
X014932Y016170D01*
X014915Y016217D01*
X014901Y016265D01*
X014891Y016314D01*
X014885Y016364D01*
X014883Y016414D01*
D11*
X007643Y014072D03*
X002049Y015048D03*
X002049Y011690D03*
X001635Y002910D03*
D12*
X001340Y016414D03*
X015513Y016414D03*
D13*
X006901Y009841D03*
X006901Y009341D03*
X006901Y008841D03*
X006901Y008341D03*
X006901Y007841D03*
X006901Y007341D03*
X006901Y006841D03*
X006901Y006341D03*
X004481Y006341D03*
X004481Y006841D03*
X004481Y007341D03*
X004481Y007841D03*
X004481Y008341D03*
X004481Y008841D03*
X004481Y009341D03*
X004481Y009841D03*
D14*
X003880Y011572D03*
X003210Y011572D03*
X006754Y011627D03*
X007423Y011627D03*
X007643Y007422D03*
X008313Y007422D03*
X014092Y008367D03*
X014761Y008367D03*
X014990Y007336D03*
X014320Y007336D03*
D15*
X009226Y003127D03*
X009226Y002536D03*
X008596Y002536D03*
X008596Y003127D03*
X007990Y003127D03*
X007990Y002536D03*
D16*
X009297Y003560D03*
X009297Y004229D03*
X011080Y004749D03*
X011080Y005418D03*
D17*
X008704Y004233D03*
X008015Y004233D03*
X014086Y008965D03*
X014775Y008965D03*
D18*
X006933Y014788D03*
X005933Y014788D03*
X006433Y013788D03*
X005433Y013788D03*
X002332Y013838D03*
X002332Y012838D03*
X001332Y013338D03*
X001332Y014338D03*
X001332Y010983D03*
X001332Y009983D03*
X002332Y009483D03*
X002332Y010483D03*
X001336Y007117D03*
X001336Y006117D03*
X001336Y005117D03*
X001336Y004117D03*
X002336Y003617D03*
X002336Y004617D03*
X002336Y005617D03*
X002336Y006617D03*
D19*
X003710Y006822D03*
X003710Y006133D03*
X003600Y009093D03*
X003600Y009782D03*
X007726Y009952D03*
X007726Y009263D03*
X007923Y006881D03*
X007923Y006192D03*
D20*
X008478Y005808D03*
X008852Y005808D03*
X009226Y005808D03*
X009226Y004784D03*
X008478Y004784D03*
D21*
X007143Y002863D03*
X003639Y002863D03*
D22*
X003639Y005186D03*
X007143Y005186D03*
D23*
X006021Y005225D03*
X005706Y005225D03*
X005391Y005225D03*
X005076Y005225D03*
X004761Y005225D03*
D24*
X004525Y004044D03*
X006257Y004044D03*
D25*
X011092Y004292D03*
X011092Y002796D03*
D26*
X007380Y012580D03*
X005490Y012580D03*
X005116Y012580D03*
X003226Y012580D03*
D27*
X010986Y013658D03*
X012915Y003580D03*
D28*
X014293Y003580D03*
X009608Y013658D03*
D29*
X004202Y013615D03*
X004202Y014796D03*
X010120Y005312D03*
X010120Y004131D03*
D30*
X012884Y005548D03*
D31*
X014284Y005548D03*
D32*
X003281Y013682D03*
X003281Y014784D03*
M02*
