G75*
%MOIN*%
%OFA0B0*%
%FSLAX24Y24*%
%IPPOS*%
%LPD*%
%AMOC8*
5,1,8,0,0,1.08239X$1,22.5*
%
%ADD10C,0.0000*%
%ADD11R,0.0800X0.0260*%
%ADD12R,0.0394X0.0433*%
%ADD13R,0.0315X0.0315*%
%ADD14R,0.0433X0.0394*%
%ADD15R,0.0413X0.0425*%
%ADD16C,0.0520*%
%ADD17R,0.0425X0.0413*%
%ADD18R,0.0217X0.0472*%
%ADD19R,0.0787X0.0984*%
%ADD20R,0.0787X0.1299*%
%ADD21R,0.0197X0.1220*%
%ADD22R,0.0551X0.0551*%
%ADD23R,0.0394X0.0669*%
%ADD24R,0.0800X0.0800*%
%ADD25C,0.0800*%
%ADD26R,0.0787X0.0591*%
%ADD27OC8,0.0630*%
%ADD28C,0.0630*%
%ADD29R,0.0709X0.0394*%
%ADD30C,0.0317*%
%ADD31C,0.0197*%
%ADD32C,0.0118*%
%ADD33C,0.0157*%
%ADD34C,0.0160*%
%ADD35C,0.0236*%
%ADD36C,0.0240*%
%ADD37C,0.0356*%
%ADD38R,0.0472X0.0472*%
%ADD39C,0.0315*%
D10*
X000159Y001847D02*
X000159Y017595D01*
X016694Y017595D01*
X016694Y001847D01*
X000159Y001847D01*
X001399Y002910D02*
X001401Y002940D01*
X001407Y002970D01*
X001416Y002999D01*
X001429Y003026D01*
X001446Y003051D01*
X001465Y003074D01*
X001488Y003095D01*
X001513Y003112D01*
X001539Y003126D01*
X001568Y003136D01*
X001597Y003143D01*
X001627Y003146D01*
X001658Y003145D01*
X001688Y003140D01*
X001717Y003131D01*
X001744Y003119D01*
X001770Y003104D01*
X001794Y003085D01*
X001815Y003063D01*
X001833Y003039D01*
X001848Y003012D01*
X001859Y002984D01*
X001867Y002955D01*
X001871Y002925D01*
X001871Y002895D01*
X001867Y002865D01*
X001859Y002836D01*
X001848Y002808D01*
X001833Y002781D01*
X001815Y002757D01*
X001794Y002735D01*
X001770Y002716D01*
X001744Y002701D01*
X001717Y002689D01*
X001688Y002680D01*
X001658Y002675D01*
X001627Y002674D01*
X001597Y002677D01*
X001568Y002684D01*
X001539Y002694D01*
X001513Y002708D01*
X001488Y002725D01*
X001465Y002746D01*
X001446Y002769D01*
X001429Y002794D01*
X001416Y002821D01*
X001407Y002850D01*
X001401Y002880D01*
X001399Y002910D01*
X004348Y004044D02*
X004350Y004070D01*
X004356Y004096D01*
X004366Y004121D01*
X004379Y004144D01*
X004395Y004164D01*
X004415Y004182D01*
X004437Y004197D01*
X004460Y004209D01*
X004486Y004217D01*
X004512Y004221D01*
X004538Y004221D01*
X004564Y004217D01*
X004590Y004209D01*
X004614Y004197D01*
X004635Y004182D01*
X004655Y004164D01*
X004671Y004144D01*
X004684Y004121D01*
X004694Y004096D01*
X004700Y004070D01*
X004702Y004044D01*
X004700Y004018D01*
X004694Y003992D01*
X004684Y003967D01*
X004671Y003944D01*
X004655Y003924D01*
X004635Y003906D01*
X004613Y003891D01*
X004590Y003879D01*
X004564Y003871D01*
X004538Y003867D01*
X004512Y003867D01*
X004486Y003871D01*
X004460Y003879D01*
X004436Y003891D01*
X004415Y003906D01*
X004395Y003924D01*
X004379Y003944D01*
X004366Y003967D01*
X004356Y003992D01*
X004350Y004018D01*
X004348Y004044D01*
X006080Y004044D02*
X006082Y004070D01*
X006088Y004096D01*
X006098Y004121D01*
X006111Y004144D01*
X006127Y004164D01*
X006147Y004182D01*
X006169Y004197D01*
X006192Y004209D01*
X006218Y004217D01*
X006244Y004221D01*
X006270Y004221D01*
X006296Y004217D01*
X006322Y004209D01*
X006346Y004197D01*
X006367Y004182D01*
X006387Y004164D01*
X006403Y004144D01*
X006416Y004121D01*
X006426Y004096D01*
X006432Y004070D01*
X006434Y004044D01*
X006432Y004018D01*
X006426Y003992D01*
X006416Y003967D01*
X006403Y003944D01*
X006387Y003924D01*
X006367Y003906D01*
X006345Y003891D01*
X006322Y003879D01*
X006296Y003871D01*
X006270Y003867D01*
X006244Y003867D01*
X006218Y003871D01*
X006192Y003879D01*
X006168Y003891D01*
X006147Y003906D01*
X006127Y003924D01*
X006111Y003944D01*
X006098Y003967D01*
X006088Y003992D01*
X006082Y004018D01*
X006080Y004044D01*
X001813Y011690D02*
X001815Y011720D01*
X001821Y011750D01*
X001830Y011779D01*
X001843Y011806D01*
X001860Y011831D01*
X001879Y011854D01*
X001902Y011875D01*
X001927Y011892D01*
X001953Y011906D01*
X001982Y011916D01*
X002011Y011923D01*
X002041Y011926D01*
X002072Y011925D01*
X002102Y011920D01*
X002131Y011911D01*
X002158Y011899D01*
X002184Y011884D01*
X002208Y011865D01*
X002229Y011843D01*
X002247Y011819D01*
X002262Y011792D01*
X002273Y011764D01*
X002281Y011735D01*
X002285Y011705D01*
X002285Y011675D01*
X002281Y011645D01*
X002273Y011616D01*
X002262Y011588D01*
X002247Y011561D01*
X002229Y011537D01*
X002208Y011515D01*
X002184Y011496D01*
X002158Y011481D01*
X002131Y011469D01*
X002102Y011460D01*
X002072Y011455D01*
X002041Y011454D01*
X002011Y011457D01*
X001982Y011464D01*
X001953Y011474D01*
X001927Y011488D01*
X001902Y011505D01*
X001879Y011526D01*
X001860Y011549D01*
X001843Y011574D01*
X001830Y011601D01*
X001821Y011630D01*
X001815Y011660D01*
X001813Y011690D01*
X001813Y015048D02*
X001815Y015078D01*
X001821Y015108D01*
X001830Y015137D01*
X001843Y015164D01*
X001860Y015189D01*
X001879Y015212D01*
X001902Y015233D01*
X001927Y015250D01*
X001953Y015264D01*
X001982Y015274D01*
X002011Y015281D01*
X002041Y015284D01*
X002072Y015283D01*
X002102Y015278D01*
X002131Y015269D01*
X002158Y015257D01*
X002184Y015242D01*
X002208Y015223D01*
X002229Y015201D01*
X002247Y015177D01*
X002262Y015150D01*
X002273Y015122D01*
X002281Y015093D01*
X002285Y015063D01*
X002285Y015033D01*
X002281Y015003D01*
X002273Y014974D01*
X002262Y014946D01*
X002247Y014919D01*
X002229Y014895D01*
X002208Y014873D01*
X002184Y014854D01*
X002158Y014839D01*
X002131Y014827D01*
X002102Y014818D01*
X002072Y014813D01*
X002041Y014812D01*
X002011Y014815D01*
X001982Y014822D01*
X001953Y014832D01*
X001927Y014846D01*
X001902Y014863D01*
X001879Y014884D01*
X001860Y014907D01*
X001843Y014932D01*
X001830Y014959D01*
X001821Y014988D01*
X001815Y015018D01*
X001813Y015048D01*
X000710Y016414D02*
X000712Y016464D01*
X000718Y016514D01*
X000728Y016563D01*
X000742Y016611D01*
X000759Y016658D01*
X000780Y016703D01*
X000805Y016747D01*
X000833Y016788D01*
X000865Y016827D01*
X000899Y016864D01*
X000936Y016898D01*
X000976Y016928D01*
X001018Y016955D01*
X001062Y016979D01*
X001108Y017000D01*
X001155Y017016D01*
X001203Y017029D01*
X001253Y017038D01*
X001302Y017043D01*
X001353Y017044D01*
X001403Y017041D01*
X001452Y017034D01*
X001501Y017023D01*
X001549Y017008D01*
X001595Y016990D01*
X001640Y016968D01*
X001683Y016942D01*
X001724Y016913D01*
X001763Y016881D01*
X001799Y016846D01*
X001831Y016808D01*
X001861Y016768D01*
X001888Y016725D01*
X001911Y016681D01*
X001930Y016635D01*
X001946Y016587D01*
X001958Y016538D01*
X001966Y016489D01*
X001970Y016439D01*
X001970Y016389D01*
X001966Y016339D01*
X001958Y016290D01*
X001946Y016241D01*
X001930Y016193D01*
X001911Y016147D01*
X001888Y016103D01*
X001861Y016060D01*
X001831Y016020D01*
X001799Y015982D01*
X001763Y015947D01*
X001724Y015915D01*
X001683Y015886D01*
X001640Y015860D01*
X001595Y015838D01*
X001549Y015820D01*
X001501Y015805D01*
X001452Y015794D01*
X001403Y015787D01*
X001353Y015784D01*
X001302Y015785D01*
X001253Y015790D01*
X001203Y015799D01*
X001155Y015812D01*
X001108Y015828D01*
X001062Y015849D01*
X001018Y015873D01*
X000976Y015900D01*
X000936Y015930D01*
X000899Y015964D01*
X000865Y016001D01*
X000833Y016040D01*
X000805Y016081D01*
X000780Y016125D01*
X000759Y016170D01*
X000742Y016217D01*
X000728Y016265D01*
X000718Y016314D01*
X000712Y016364D01*
X000710Y016414D01*
X007407Y014072D02*
X007409Y014102D01*
X007415Y014132D01*
X007424Y014161D01*
X007437Y014188D01*
X007454Y014213D01*
X007473Y014236D01*
X007496Y014257D01*
X007521Y014274D01*
X007547Y014288D01*
X007576Y014298D01*
X007605Y014305D01*
X007635Y014308D01*
X007666Y014307D01*
X007696Y014302D01*
X007725Y014293D01*
X007752Y014281D01*
X007778Y014266D01*
X007802Y014247D01*
X007823Y014225D01*
X007841Y014201D01*
X007856Y014174D01*
X007867Y014146D01*
X007875Y014117D01*
X007879Y014087D01*
X007879Y014057D01*
X007875Y014027D01*
X007867Y013998D01*
X007856Y013970D01*
X007841Y013943D01*
X007823Y013919D01*
X007802Y013897D01*
X007778Y013878D01*
X007752Y013863D01*
X007725Y013851D01*
X007696Y013842D01*
X007666Y013837D01*
X007635Y013836D01*
X007605Y013839D01*
X007576Y013846D01*
X007547Y013856D01*
X007521Y013870D01*
X007496Y013887D01*
X007473Y013908D01*
X007454Y013931D01*
X007437Y013956D01*
X007424Y013983D01*
X007415Y014012D01*
X007409Y014042D01*
X007407Y014072D01*
X014883Y016414D02*
X014885Y016464D01*
X014891Y016514D01*
X014901Y016563D01*
X014915Y016611D01*
X014932Y016658D01*
X014953Y016703D01*
X014978Y016747D01*
X015006Y016788D01*
X015038Y016827D01*
X015072Y016864D01*
X015109Y016898D01*
X015149Y016928D01*
X015191Y016955D01*
X015235Y016979D01*
X015281Y017000D01*
X015328Y017016D01*
X015376Y017029D01*
X015426Y017038D01*
X015475Y017043D01*
X015526Y017044D01*
X015576Y017041D01*
X015625Y017034D01*
X015674Y017023D01*
X015722Y017008D01*
X015768Y016990D01*
X015813Y016968D01*
X015856Y016942D01*
X015897Y016913D01*
X015936Y016881D01*
X015972Y016846D01*
X016004Y016808D01*
X016034Y016768D01*
X016061Y016725D01*
X016084Y016681D01*
X016103Y016635D01*
X016119Y016587D01*
X016131Y016538D01*
X016139Y016489D01*
X016143Y016439D01*
X016143Y016389D01*
X016139Y016339D01*
X016131Y016290D01*
X016119Y016241D01*
X016103Y016193D01*
X016084Y016147D01*
X016061Y016103D01*
X016034Y016060D01*
X016004Y016020D01*
X015972Y015982D01*
X015936Y015947D01*
X015897Y015915D01*
X015856Y015886D01*
X015813Y015860D01*
X015768Y015838D01*
X015722Y015820D01*
X015674Y015805D01*
X015625Y015794D01*
X015576Y015787D01*
X015526Y015784D01*
X015475Y015785D01*
X015426Y015790D01*
X015376Y015799D01*
X015328Y015812D01*
X015281Y015828D01*
X015235Y015849D01*
X015191Y015873D01*
X015149Y015900D01*
X015109Y015930D01*
X015072Y015964D01*
X015038Y016001D01*
X015006Y016040D01*
X014978Y016081D01*
X014953Y016125D01*
X014932Y016170D01*
X014915Y016217D01*
X014901Y016265D01*
X014891Y016314D01*
X014885Y016364D01*
X014883Y016414D01*
D11*
X006901Y009841D03*
X006901Y009341D03*
X006901Y008841D03*
X006901Y008341D03*
X006901Y007841D03*
X006901Y007341D03*
X006901Y006841D03*
X006901Y006341D03*
X004481Y006341D03*
X004481Y006841D03*
X004481Y007341D03*
X004481Y007841D03*
X004481Y008341D03*
X004481Y008841D03*
X004481Y009341D03*
X004481Y009841D03*
D12*
X003880Y011572D03*
X003210Y011572D03*
X006754Y011627D03*
X007423Y011627D03*
X007643Y007422D03*
X008313Y007422D03*
X014092Y008367D03*
X014761Y008367D03*
X014990Y007336D03*
X014320Y007336D03*
D13*
X009226Y003127D03*
X009226Y002536D03*
X008596Y002536D03*
X008596Y003127D03*
X007990Y003127D03*
X007990Y002536D03*
D14*
X009297Y003560D03*
X009297Y004229D03*
X011080Y004749D03*
X011080Y005418D03*
D15*
X008704Y004233D03*
X008015Y004233D03*
X014086Y008965D03*
X014775Y008965D03*
D16*
X006933Y014788D03*
X005933Y014788D03*
X006433Y013788D03*
X005433Y013788D03*
X002332Y013838D03*
X002332Y012838D03*
X001332Y013338D03*
X001332Y014338D03*
X001332Y010983D03*
X001332Y009983D03*
X002332Y009483D03*
X002332Y010483D03*
X001336Y007117D03*
X001336Y006117D03*
X001336Y005117D03*
X001336Y004117D03*
X002336Y003617D03*
X002336Y004617D03*
X002336Y005617D03*
X002336Y006617D03*
D17*
X003710Y006822D03*
X003710Y006133D03*
X003600Y009093D03*
X003600Y009782D03*
X007726Y009952D03*
X007726Y009263D03*
X007923Y006881D03*
X007923Y006192D03*
D18*
X008478Y005808D03*
X008852Y005808D03*
X009226Y005808D03*
X009226Y004784D03*
X008478Y004784D03*
D19*
X007143Y002863D03*
X003639Y002863D03*
D20*
X003639Y005186D03*
X007143Y005186D03*
D21*
X006021Y005225D03*
X005706Y005225D03*
X005391Y005225D03*
X005076Y005225D03*
X004761Y005225D03*
D22*
X011092Y004292D03*
X011092Y002796D03*
D23*
X007380Y012580D03*
X005490Y012580D03*
X005116Y012580D03*
X003226Y012580D03*
D24*
X010986Y013658D03*
X012915Y003580D03*
D25*
X014293Y003580D03*
X009608Y013658D03*
D26*
X004202Y013615D03*
X004202Y014796D03*
X010120Y005312D03*
X010120Y004131D03*
D27*
X012884Y005548D03*
D28*
X014284Y005548D03*
D29*
X003281Y013682D03*
X003281Y014784D03*
D30*
X002915Y016808D03*
X003702Y016808D03*
X004490Y016808D03*
X005277Y016808D03*
X006065Y016808D03*
X006852Y016808D03*
X008427Y016808D03*
X009214Y016808D03*
X010002Y016808D03*
X010789Y016808D03*
X011576Y016808D03*
X012364Y016808D03*
X013151Y016808D03*
X013939Y016808D03*
X016222Y014840D03*
X016222Y014052D03*
X016222Y013265D03*
X014726Y010902D03*
X016222Y009328D03*
X016222Y008540D03*
X016222Y007753D03*
X016222Y006965D03*
X016222Y006178D03*
X016222Y005391D03*
X016222Y004603D03*
X016222Y003816D03*
X016222Y003028D03*
X015100Y007340D03*
X015100Y007910D03*
X015100Y008402D03*
X015100Y008934D03*
X011852Y004525D03*
X009332Y006375D03*
X009332Y006887D03*
X009175Y007832D03*
X009175Y008501D03*
X008702Y005273D03*
X006025Y004446D03*
X005710Y004091D03*
X005395Y003737D03*
X006065Y003580D03*
X004490Y003462D03*
X003624Y006060D03*
X004726Y007359D03*
X005159Y007202D03*
X004726Y007871D03*
X004726Y008383D03*
X005986Y006847D03*
X002836Y008895D03*
X002443Y008304D03*
X002009Y007871D03*
X000631Y007753D03*
X000631Y006965D03*
X000631Y006178D03*
X000631Y005391D03*
X000631Y004603D03*
X000631Y003816D03*
X000631Y003028D03*
X000631Y008540D03*
X000631Y009328D03*
X000631Y010115D03*
X000631Y010902D03*
X000631Y011690D03*
X000631Y012477D03*
X000631Y013265D03*
X000631Y014052D03*
X000631Y014840D03*
X004254Y010312D03*
X005317Y011572D03*
X005840Y011580D03*
X001419Y009406D03*
X007994Y002162D03*
X008624Y002162D03*
D31*
X008596Y002241D01*
X008596Y002536D01*
X009226Y003127D02*
X009226Y003379D01*
X009297Y004229D02*
X009226Y004481D01*
X009226Y004784D01*
X009553Y004784D01*
X010120Y005312D01*
X010120Y006414D01*
X009883Y006651D01*
X009883Y007241D01*
X009765Y007359D01*
X008368Y007359D01*
X008313Y007422D02*
X008313Y007036D01*
X008157Y006881D01*
X007923Y006881D01*
X007805Y006841D01*
X006901Y006841D01*
X007564Y006847D01*
X006537Y006847D01*
X006183Y007202D01*
X006183Y009603D01*
X006421Y009841D01*
X006901Y009841D01*
X007537Y009841D01*
X007726Y009952D01*
X008781Y009210D02*
X008413Y008841D01*
X006901Y008841D01*
X006901Y008341D02*
X007401Y008341D01*
X007561Y008501D01*
X009175Y008501D01*
X009175Y007832D02*
X007915Y007832D01*
X007683Y007599D01*
X007643Y007422D02*
X007523Y007341D01*
X006901Y007341D01*
X005986Y006847D02*
X005868Y006965D01*
X005868Y009918D01*
X007364Y011414D01*
X007403Y011607D01*
X007380Y011710D02*
X007380Y012580D01*
X008781Y011847D02*
X009765Y012832D01*
X013899Y012832D01*
X014411Y012320D01*
X014411Y011021D01*
X014529Y010902D01*
X014726Y010902D01*
X014767Y008973D02*
X015100Y008934D01*
X015100Y008402D02*
X014761Y008347D01*
X014254Y007324D02*
X014254Y006729D01*
X013939Y006414D01*
X010120Y006414D01*
X009226Y005808D02*
X009226Y005481D01*
X009017Y005273D01*
X008702Y005273D01*
X008478Y005497D01*
X008478Y005808D01*
X008852Y005808D02*
X008860Y005816D01*
X008478Y004784D02*
X008478Y004499D01*
X008704Y004233D01*
X007990Y002536D02*
X007990Y002280D01*
X007994Y002162D01*
X005710Y004091D02*
X005710Y004249D01*
X005391Y004568D01*
X005391Y005225D01*
X005076Y005225D02*
X005076Y004489D01*
X005356Y004210D01*
X005356Y003777D01*
X005395Y003737D01*
X004923Y003895D02*
X004490Y003462D01*
X004923Y003895D02*
X004923Y004210D01*
X004761Y004371D01*
X004761Y005225D01*
X003744Y006099D02*
X003624Y006060D01*
X003710Y006133D02*
X003744Y006099D01*
X003710Y006822D02*
X003809Y006841D01*
X005159Y007202D02*
X005159Y008501D01*
X004805Y008855D01*
X005523Y009841D02*
X005553Y009851D01*
X004254Y010312D02*
X003210Y011355D01*
X003210Y011572D01*
X003210Y012564D01*
X003659Y009841D02*
X003600Y009782D01*
X003074Y009782D02*
X003072Y009761D01*
X001419Y009406D02*
X001419Y007200D01*
X001336Y007117D01*
X005480Y006841D02*
X005507Y006841D01*
X005553Y006847D01*
X006025Y005300D02*
X006021Y005225D01*
X008781Y009210D02*
X008781Y011847D01*
X011080Y005418D02*
X011982Y005418D01*
X012797Y004603D01*
X013269Y004603D01*
X013939Y004603D01*
X014293Y004249D01*
X014293Y003580D01*
X011852Y004525D02*
X011813Y004485D01*
X011092Y004485D01*
X011092Y004777D01*
X011080Y004749D01*
X011092Y004485D02*
X011092Y004292D01*
D32*
X010677Y004296D02*
X009652Y004296D01*
X009652Y004180D02*
X010677Y004180D01*
X010677Y004063D02*
X009652Y004063D01*
X009652Y003975D02*
X009652Y004484D01*
X009591Y004545D01*
X009642Y004543D01*
X009646Y004547D01*
X009651Y004547D01*
X009718Y004613D01*
X010002Y004878D01*
X010571Y004878D01*
X010652Y004959D01*
X010652Y005665D01*
X010571Y005746D01*
X010357Y005746D01*
X010357Y006177D01*
X014037Y006177D01*
X014352Y006492D01*
X014491Y006631D01*
X014491Y006980D01*
X014575Y006980D01*
X014655Y007060D01*
X014735Y006980D01*
X015244Y006980D01*
X015326Y007061D01*
X015326Y007144D01*
X015352Y007171D01*
X015397Y007280D01*
X015397Y007399D01*
X015352Y007508D01*
X015326Y007535D01*
X015326Y007610D01*
X015273Y007663D01*
X015352Y007742D01*
X015397Y007851D01*
X015397Y007970D01*
X015352Y008079D01*
X015275Y008156D01*
X015352Y008234D01*
X015397Y008343D01*
X015397Y008462D01*
X015352Y008571D01*
X015269Y008655D01*
X015236Y008668D01*
X015269Y008682D01*
X015352Y008765D01*
X015397Y008875D01*
X015397Y008993D01*
X015352Y009102D01*
X015269Y009186D01*
X015159Y009231D01*
X015121Y009231D01*
X015121Y009236D01*
X015039Y009317D01*
X014511Y009317D01*
X014429Y009236D01*
X014429Y008695D01*
X014455Y008670D01*
X014426Y008641D01*
X014426Y008128D01*
X013966Y008128D01*
X013839Y008001D01*
X013681Y007843D01*
X013681Y006947D01*
X010416Y006947D01*
X010416Y007764D01*
X010289Y007892D01*
X009797Y008384D01*
X009448Y008384D01*
X009472Y008442D01*
X009472Y008560D01*
X009427Y008669D01*
X009343Y008753D01*
X009234Y008798D01*
X009116Y008798D01*
X009006Y008753D01*
X008992Y008738D01*
X008646Y008738D01*
X008879Y008972D01*
X009019Y009111D01*
X009019Y011749D01*
X009864Y012594D01*
X013801Y012594D01*
X014174Y012221D01*
X014174Y010922D01*
X014292Y010804D01*
X014431Y010665D01*
X014543Y010665D01*
X014557Y010650D01*
X014667Y010605D01*
X014785Y010605D01*
X014894Y010650D01*
X014978Y010734D01*
X015023Y010843D01*
X015023Y010962D01*
X014978Y011071D01*
X014894Y011155D01*
X014785Y011200D01*
X014667Y011200D01*
X014649Y011192D01*
X014649Y012418D01*
X013998Y013069D01*
X009667Y013069D01*
X009528Y012930D01*
X008544Y011946D01*
X008544Y009308D01*
X008315Y009079D01*
X007390Y009079D01*
X007358Y009111D01*
X006498Y009111D01*
X006498Y009572D01*
X007358Y009572D01*
X007390Y009604D01*
X007506Y009604D01*
X007572Y009587D01*
X007601Y009604D01*
X007635Y009604D01*
X007637Y009606D01*
X007996Y009606D01*
X008078Y009687D01*
X008078Y010216D01*
X008033Y010261D01*
X008033Y013980D01*
X008039Y013993D01*
X008039Y014150D01*
X008033Y014164D01*
X008033Y017436D01*
X016535Y017436D01*
X016535Y002006D01*
X009167Y002006D01*
X009136Y002830D01*
X009441Y002830D01*
X009523Y002912D01*
X009523Y003224D01*
X009571Y003224D01*
X009652Y003306D01*
X009652Y003814D01*
X009572Y003895D01*
X009652Y003975D01*
X009624Y003946D02*
X010690Y003946D01*
X010677Y003959D02*
X010759Y003878D01*
X011425Y003878D01*
X011507Y003959D01*
X011507Y004248D01*
X011743Y004248D01*
X011793Y004227D01*
X011911Y004227D01*
X012020Y004272D01*
X012104Y004356D01*
X012149Y004465D01*
X012149Y004584D01*
X012104Y004693D01*
X012020Y004777D01*
X011911Y004822D01*
X011793Y004822D01*
X011683Y004777D01*
X011629Y004723D01*
X011436Y004723D01*
X011436Y005003D01*
X011356Y005084D01*
X011436Y005164D01*
X011436Y005181D01*
X011884Y005181D01*
X012559Y004505D01*
X012698Y004366D01*
X013840Y004366D01*
X014055Y004151D01*
X014055Y004065D01*
X013988Y004037D01*
X013836Y003885D01*
X013754Y003687D01*
X013754Y003472D01*
X013836Y003274D01*
X013988Y003123D01*
X014186Y003041D01*
X014400Y003041D01*
X014598Y003123D01*
X014750Y003274D01*
X014832Y003472D01*
X014832Y003687D01*
X014750Y003885D01*
X014598Y004037D01*
X014530Y004065D01*
X014530Y004347D01*
X014391Y004486D01*
X014037Y004841D01*
X012895Y004841D01*
X012080Y005656D01*
X011436Y005656D01*
X011436Y005673D01*
X011354Y005754D01*
X010806Y005754D01*
X010725Y005673D01*
X010725Y005164D01*
X010805Y005084D01*
X010725Y005003D01*
X010725Y004673D01*
X010677Y004625D01*
X010677Y003959D01*
X010677Y004413D02*
X009652Y004413D01*
X009607Y004529D02*
X010677Y004529D01*
X010698Y004646D02*
X009753Y004646D01*
X009878Y004763D02*
X010725Y004763D01*
X010725Y004879D02*
X010573Y004879D01*
X010652Y004996D02*
X010725Y004996D01*
X010776Y005112D02*
X010652Y005112D01*
X010652Y005229D02*
X010725Y005229D01*
X010725Y005346D02*
X010652Y005346D01*
X010652Y005462D02*
X010725Y005462D01*
X010725Y005579D02*
X010652Y005579D01*
X010622Y005696D02*
X010748Y005696D01*
X010357Y005812D02*
X013906Y005812D01*
X013899Y005805D02*
X013830Y005638D01*
X013830Y005458D01*
X013899Y005291D01*
X014027Y005163D01*
X014194Y005094D01*
X014375Y005094D01*
X014541Y005163D01*
X014669Y005291D01*
X014738Y005458D01*
X014738Y005638D01*
X014669Y005805D01*
X014541Y005933D01*
X014375Y006002D01*
X014194Y006002D01*
X014027Y005933D01*
X013899Y005805D01*
X013854Y005696D02*
X011413Y005696D01*
X011385Y005112D02*
X011952Y005112D01*
X012068Y004996D02*
X011436Y004996D01*
X011436Y004879D02*
X012185Y004879D01*
X012302Y004763D02*
X012035Y004763D01*
X012124Y004646D02*
X012418Y004646D01*
X012535Y004529D02*
X012149Y004529D01*
X012128Y004413D02*
X012651Y004413D01*
X012457Y004119D02*
X012376Y004037D01*
X012376Y003122D01*
X012457Y003041D01*
X013373Y003041D01*
X013454Y003122D01*
X013454Y004037D01*
X013373Y004119D01*
X012457Y004119D01*
X012402Y004063D02*
X011507Y004063D01*
X011507Y004180D02*
X014026Y004180D01*
X014051Y004063D02*
X013428Y004063D01*
X013454Y003946D02*
X013897Y003946D01*
X013813Y003830D02*
X013454Y003830D01*
X013454Y003713D02*
X013765Y003713D01*
X013754Y003597D02*
X013454Y003597D01*
X013454Y003480D02*
X013754Y003480D01*
X013799Y003363D02*
X013454Y003363D01*
X013454Y003247D02*
X013864Y003247D01*
X013980Y003130D02*
X013454Y003130D01*
X012376Y003130D02*
X009523Y003130D01*
X009523Y003013D02*
X016535Y003013D01*
X016535Y002897D02*
X009508Y002897D01*
X009594Y003247D02*
X012376Y003247D01*
X012376Y003363D02*
X009652Y003363D01*
X009652Y003480D02*
X012376Y003480D01*
X012376Y003597D02*
X009652Y003597D01*
X009652Y003713D02*
X012376Y003713D01*
X012376Y003830D02*
X009637Y003830D01*
X009297Y003560D02*
X009226Y003379D01*
X008742Y003363D02*
X006566Y003363D01*
X006565Y003362D02*
X006637Y003434D01*
X006873Y003670D01*
X006912Y003765D01*
X006912Y004239D01*
X006915Y004280D01*
X006912Y004290D01*
X006912Y004300D01*
X006896Y004338D01*
X006884Y004377D01*
X006877Y004385D01*
X006873Y004395D01*
X006844Y004424D01*
X006676Y004620D01*
X006676Y005784D01*
X007521Y005784D01*
X007521Y003501D01*
X008742Y003501D01*
X008742Y002833D01*
X008381Y002833D01*
X008300Y002751D01*
X008300Y002321D01*
X008348Y002273D01*
X008345Y002267D01*
X008339Y002255D01*
X008340Y002254D01*
X008326Y002222D01*
X008326Y002103D01*
X008366Y002006D01*
X008251Y002006D01*
X008291Y002103D01*
X008291Y002222D01*
X008261Y002296D01*
X008286Y002321D01*
X008286Y002751D01*
X008205Y002833D01*
X007775Y002833D01*
X007693Y002751D01*
X007693Y002321D01*
X007725Y002290D01*
X007696Y002222D01*
X007696Y002103D01*
X007736Y002006D01*
X000318Y002006D01*
X000318Y017436D01*
X007639Y017436D01*
X007639Y014467D01*
X007565Y014467D01*
X007419Y014407D01*
X007308Y014296D01*
X007248Y014150D01*
X007248Y013993D01*
X007308Y013848D01*
X007419Y013737D01*
X007565Y013677D01*
X007639Y013677D01*
X007639Y013048D01*
X007634Y013053D01*
X007125Y013053D01*
X007044Y012972D01*
X007044Y012187D01*
X007125Y012106D01*
X007142Y012106D01*
X007142Y011956D01*
X007088Y011902D01*
X007008Y011982D01*
X006499Y011982D01*
X006418Y011901D01*
X006418Y011698D01*
X005553Y010833D01*
X005208Y011178D01*
X005304Y011274D01*
X005376Y011274D01*
X005485Y011320D01*
X005569Y011403D01*
X005614Y011513D01*
X005614Y011631D01*
X005569Y011740D01*
X005485Y011824D01*
X005376Y011869D01*
X005257Y011869D01*
X005148Y011824D01*
X005129Y011805D01*
X005092Y011790D01*
X004844Y011542D01*
X004596Y011790D01*
X004502Y011829D01*
X004215Y011829D01*
X004215Y011846D01*
X004134Y011927D01*
X003625Y011927D01*
X003545Y011847D01*
X003465Y011927D01*
X003448Y011927D01*
X003448Y012106D01*
X003480Y012106D01*
X003562Y012187D01*
X003562Y012972D01*
X003480Y013053D01*
X002972Y013053D01*
X002890Y012972D01*
X002890Y012187D01*
X002972Y012106D01*
X002973Y012106D01*
X002973Y011927D01*
X002956Y011927D01*
X002874Y011846D01*
X002874Y011298D01*
X002956Y011216D01*
X003013Y011216D01*
X003112Y011118D01*
X003956Y010274D01*
X003956Y010253D01*
X004001Y010143D01*
X004034Y010111D01*
X004023Y010111D01*
X004011Y010099D01*
X003900Y010099D01*
X003870Y010128D01*
X003330Y010128D01*
X003248Y010047D01*
X003248Y010040D01*
X003181Y010040D01*
X002731Y010489D01*
X002731Y010563D01*
X002671Y010709D01*
X002558Y010822D01*
X002412Y010882D01*
X002253Y010882D01*
X002106Y010822D01*
X001994Y010709D01*
X001933Y010563D01*
X001933Y010404D01*
X001994Y010257D01*
X002106Y010145D01*
X002253Y010084D01*
X002409Y010084D01*
X002838Y009655D01*
X002854Y009615D01*
X002855Y009615D01*
X002855Y009277D01*
X002765Y009187D01*
X002668Y009147D01*
X002584Y009063D01*
X002539Y008954D01*
X002539Y008835D01*
X002584Y008726D01*
X002668Y008642D01*
X002777Y008597D01*
X002895Y008597D01*
X003005Y008642D01*
X003088Y008726D01*
X003129Y008823D01*
X003330Y009025D01*
X003369Y009119D01*
X003369Y009221D01*
X003369Y009437D01*
X003870Y009437D01*
X003952Y009518D01*
X003952Y009584D01*
X004011Y009584D01*
X004023Y009572D01*
X004938Y009572D01*
X004950Y009584D01*
X005296Y009584D01*
X005296Y008700D01*
X005257Y008738D01*
X005020Y008976D01*
X005020Y009029D01*
X004938Y009111D01*
X004023Y009111D01*
X003941Y009029D01*
X003941Y009009D01*
X003770Y008837D01*
X003642Y008709D01*
X003642Y008552D01*
X003573Y008482D01*
X003061Y008482D01*
X001735Y007157D01*
X001735Y007196D01*
X001675Y007343D01*
X001656Y007361D01*
X001656Y009223D01*
X001671Y009238D01*
X001716Y009347D01*
X001716Y009466D01*
X001671Y009575D01*
X001587Y009659D01*
X001577Y009663D01*
X001671Y009757D01*
X001731Y009904D01*
X001731Y010063D01*
X001671Y010209D01*
X001558Y010322D01*
X001412Y010382D01*
X001253Y010382D01*
X001106Y010322D01*
X000994Y010209D01*
X000933Y010063D01*
X000933Y009904D01*
X000994Y009757D01*
X001106Y009645D01*
X001198Y009607D01*
X001167Y009575D01*
X001121Y009466D01*
X001121Y009347D01*
X001167Y009238D01*
X001181Y009223D01*
X001181Y007485D01*
X001110Y007455D01*
X000998Y007343D01*
X000937Y007196D01*
X000937Y007038D01*
X000998Y006891D01*
X001110Y006779D01*
X001257Y006718D01*
X001296Y006718D01*
X001122Y006544D01*
X001122Y006460D01*
X001110Y006455D01*
X000998Y006343D01*
X000937Y006196D01*
X000937Y006038D01*
X000998Y005891D01*
X001110Y005779D01*
X001257Y005718D01*
X001416Y005718D01*
X001562Y005779D01*
X001675Y005891D01*
X001735Y006038D01*
X001735Y006196D01*
X001675Y006343D01*
X001606Y006412D01*
X001970Y006775D01*
X001937Y006696D01*
X001937Y006538D01*
X001998Y006391D01*
X002110Y006279D01*
X002257Y006218D01*
X002293Y006218D01*
X002118Y006044D01*
X002118Y005959D01*
X002110Y005955D01*
X001998Y005843D01*
X001937Y005696D01*
X001937Y005538D01*
X001998Y005391D01*
X002056Y005333D01*
X001679Y005333D01*
X001675Y005343D01*
X001562Y005455D01*
X001416Y005516D01*
X001257Y005516D01*
X001110Y005455D01*
X000998Y005343D01*
X000937Y005196D01*
X000937Y005038D01*
X000998Y004891D01*
X001110Y004779D01*
X001257Y004718D01*
X001416Y004718D01*
X001562Y004779D01*
X001675Y004891D01*
X001677Y004897D01*
X002052Y004897D01*
X001998Y004843D01*
X001937Y004696D01*
X001937Y004538D01*
X001998Y004391D01*
X002110Y004279D01*
X002257Y004218D01*
X002416Y004218D01*
X002562Y004279D01*
X002675Y004391D01*
X002735Y004538D01*
X002735Y004549D01*
X003163Y004976D01*
X003290Y005104D01*
X003290Y005812D01*
X004524Y005812D01*
X004524Y005893D02*
X004524Y004380D01*
X004458Y004380D01*
X004335Y004329D01*
X004240Y004235D01*
X004189Y004111D01*
X004189Y003977D01*
X004240Y003854D01*
X004335Y003759D01*
X004383Y003739D01*
X004321Y003714D01*
X004238Y003630D01*
X004192Y003521D01*
X004192Y003402D01*
X004238Y003293D01*
X004321Y003209D01*
X004431Y003164D01*
X004549Y003164D01*
X004658Y003209D01*
X004742Y003293D01*
X004787Y003402D01*
X004787Y003423D01*
X005098Y003734D01*
X005098Y003678D01*
X005143Y003569D01*
X005227Y003485D01*
X005336Y003440D01*
X005454Y003440D01*
X005564Y003485D01*
X005647Y003569D01*
X005693Y003678D01*
X005693Y003794D01*
X005769Y003794D01*
X005879Y003839D01*
X005949Y003910D01*
X005969Y003862D01*
X005896Y003832D01*
X005812Y003748D01*
X005767Y003639D01*
X005767Y003520D01*
X005812Y003411D01*
X005896Y003327D01*
X006005Y003282D01*
X006124Y003282D01*
X006221Y003322D01*
X006470Y003322D01*
X006565Y003362D01*
X006683Y003480D02*
X008742Y003480D01*
X008742Y003247D02*
X004696Y003247D01*
X004771Y003363D02*
X005860Y003363D01*
X005784Y003480D02*
X005552Y003480D01*
X005659Y003597D02*
X005767Y003597D01*
X005798Y003713D02*
X005693Y003713D01*
X005856Y003830D02*
X005894Y003830D01*
X005973Y004235D02*
X005962Y004260D01*
X005948Y004275D01*
X005948Y004347D01*
X005819Y004476D01*
X005862Y004476D01*
X005944Y004557D01*
X005944Y005893D01*
X005862Y005975D01*
X005550Y005975D01*
X005549Y005973D01*
X005547Y005975D01*
X005235Y005975D01*
X005234Y005973D01*
X005232Y005975D01*
X004920Y005975D01*
X004919Y005973D01*
X004917Y005975D01*
X004605Y005975D01*
X004524Y005893D01*
X004560Y005929D02*
X003407Y005929D01*
X003399Y005921D02*
X003526Y006048D01*
X003526Y006476D01*
X003980Y006476D01*
X004062Y006557D01*
X004062Y006572D01*
X004938Y006572D01*
X004950Y006584D01*
X005373Y006584D01*
X006162Y005796D01*
X006162Y004534D01*
X006159Y004493D01*
X006162Y004484D01*
X006162Y004473D01*
X006178Y004435D01*
X006190Y004396D01*
X006197Y004388D01*
X006200Y004380D01*
X006191Y004380D01*
X006067Y004329D01*
X005973Y004235D01*
X005948Y004296D02*
X006034Y004296D01*
X005882Y004413D02*
X006185Y004413D01*
X006161Y004529D02*
X005916Y004529D01*
X005944Y004646D02*
X006162Y004646D01*
X006162Y004763D02*
X005944Y004763D01*
X005944Y004879D02*
X006162Y004879D01*
X006162Y004996D02*
X005944Y004996D01*
X005944Y005112D02*
X006162Y005112D01*
X006162Y005229D02*
X005944Y005229D01*
X005944Y005346D02*
X006162Y005346D01*
X006162Y005462D02*
X005944Y005462D01*
X005944Y005579D02*
X006162Y005579D01*
X006162Y005696D02*
X005944Y005696D01*
X005944Y005812D02*
X006146Y005812D01*
X006029Y005929D02*
X005908Y005929D01*
X005912Y006045D02*
X003523Y006045D01*
X003526Y006162D02*
X005796Y006162D01*
X005679Y006279D02*
X003526Y006279D01*
X003526Y006395D02*
X005563Y006395D01*
X005446Y006512D02*
X004016Y006512D01*
X003399Y005921D02*
X003290Y005812D01*
X003290Y005696D02*
X004524Y005696D01*
X004524Y005579D02*
X003290Y005579D01*
X003290Y005462D02*
X004524Y005462D01*
X004524Y005346D02*
X003290Y005346D01*
X003290Y005229D02*
X004524Y005229D01*
X004524Y005112D02*
X003290Y005112D01*
X003182Y004996D02*
X004524Y004996D01*
X004524Y004879D02*
X003066Y004879D01*
X002949Y004763D02*
X004524Y004763D01*
X004524Y004646D02*
X002833Y004646D01*
X002732Y004529D02*
X004524Y004529D01*
X004524Y004413D02*
X002684Y004413D01*
X002580Y004296D02*
X004302Y004296D01*
X004217Y004180D02*
X001735Y004180D01*
X001735Y004196D02*
X001675Y004343D01*
X001562Y004455D01*
X001416Y004516D01*
X001257Y004516D01*
X001110Y004455D01*
X000998Y004343D01*
X000937Y004196D01*
X000937Y004038D01*
X000998Y003891D01*
X001110Y003779D01*
X001257Y003718D01*
X001416Y003718D01*
X001562Y003779D01*
X001675Y003891D01*
X001735Y004038D01*
X001735Y004196D01*
X001694Y004296D02*
X002093Y004296D01*
X001989Y004413D02*
X001605Y004413D01*
X001941Y004529D02*
X000318Y004529D01*
X000318Y004413D02*
X001068Y004413D01*
X000978Y004296D02*
X000318Y004296D01*
X000318Y004180D02*
X000937Y004180D01*
X000937Y004063D02*
X000318Y004063D01*
X000318Y003946D02*
X000975Y003946D01*
X001059Y003830D02*
X000318Y003830D01*
X000318Y003713D02*
X004321Y003713D01*
X004264Y003830D02*
X001613Y003830D01*
X001697Y003946D02*
X004202Y003946D01*
X004189Y004063D02*
X001735Y004063D01*
X001937Y004646D02*
X000318Y004646D01*
X000318Y004763D02*
X001149Y004763D01*
X001010Y004879D02*
X000318Y004879D01*
X000318Y004996D02*
X000954Y004996D01*
X000937Y005112D02*
X000318Y005112D01*
X000318Y005229D02*
X000951Y005229D01*
X001001Y005346D02*
X000318Y005346D01*
X000318Y005462D02*
X001127Y005462D01*
X001077Y005812D02*
X000318Y005812D01*
X000318Y005696D02*
X001937Y005696D01*
X001937Y005579D02*
X000318Y005579D01*
X000318Y005929D02*
X000982Y005929D01*
X000937Y006045D02*
X000318Y006045D01*
X000318Y006162D02*
X000937Y006162D01*
X000971Y006279D02*
X000318Y006279D01*
X000318Y006395D02*
X001050Y006395D01*
X001122Y006512D02*
X000318Y006512D01*
X000318Y006628D02*
X001207Y006628D01*
X001192Y006745D02*
X000318Y006745D01*
X000318Y006862D02*
X001027Y006862D01*
X000962Y006978D02*
X000318Y006978D01*
X000318Y007095D02*
X000937Y007095D01*
X000943Y007211D02*
X000318Y007211D01*
X000318Y007328D02*
X000992Y007328D01*
X001099Y007445D02*
X000318Y007445D01*
X000318Y007561D02*
X001181Y007561D01*
X001181Y007678D02*
X000318Y007678D01*
X000318Y007795D02*
X001181Y007795D01*
X001181Y007911D02*
X000318Y007911D01*
X000318Y008028D02*
X001181Y008028D01*
X001181Y008144D02*
X000318Y008144D01*
X000318Y008261D02*
X001181Y008261D01*
X001181Y008378D02*
X000318Y008378D01*
X000318Y008494D02*
X001181Y008494D01*
X001181Y008611D02*
X000318Y008611D01*
X000318Y008727D02*
X001181Y008727D01*
X001181Y008844D02*
X000318Y008844D01*
X000318Y008961D02*
X001181Y008961D01*
X001181Y009077D02*
X000318Y009077D01*
X000318Y009194D02*
X001181Y009194D01*
X001137Y009310D02*
X000318Y009310D01*
X000318Y009427D02*
X001121Y009427D01*
X001154Y009544D02*
X000318Y009544D01*
X000318Y009660D02*
X001091Y009660D01*
X000986Y009777D02*
X000318Y009777D01*
X000318Y009893D02*
X000938Y009893D01*
X000933Y010010D02*
X000318Y010010D01*
X000318Y010127D02*
X000960Y010127D01*
X001028Y010243D02*
X000318Y010243D01*
X000318Y010360D02*
X001199Y010360D01*
X001466Y010360D02*
X001951Y010360D01*
X001933Y010477D02*
X000318Y010477D01*
X000318Y010593D02*
X001946Y010593D01*
X001995Y010710D02*
X000318Y010710D01*
X000318Y010826D02*
X002118Y010826D01*
X002547Y010826D02*
X003403Y010826D01*
X003520Y010710D02*
X002670Y010710D01*
X002719Y010593D02*
X003636Y010593D01*
X003753Y010477D02*
X002744Y010477D01*
X002861Y010360D02*
X003870Y010360D01*
X003960Y010243D02*
X002977Y010243D01*
X003094Y010127D02*
X003328Y010127D01*
X003872Y010127D02*
X004018Y010127D01*
X003952Y009544D02*
X005296Y009544D01*
X005296Y009427D02*
X003369Y009427D01*
X003369Y009310D02*
X005296Y009310D01*
X005296Y009194D02*
X003369Y009194D01*
X003352Y009077D02*
X003990Y009077D01*
X003893Y008961D02*
X003266Y008961D01*
X003149Y008844D02*
X003777Y008844D01*
X003660Y008727D02*
X003089Y008727D01*
X002928Y008611D02*
X003642Y008611D01*
X003584Y008494D02*
X001656Y008494D01*
X001656Y008378D02*
X002956Y008378D01*
X002839Y008261D02*
X001656Y008261D01*
X001656Y008144D02*
X002723Y008144D01*
X002606Y008028D02*
X001656Y008028D01*
X001656Y007911D02*
X002490Y007911D01*
X002373Y007795D02*
X001656Y007795D01*
X001656Y007678D02*
X002256Y007678D01*
X002140Y007561D02*
X001656Y007561D01*
X001656Y007445D02*
X002023Y007445D01*
X001907Y007328D02*
X001681Y007328D01*
X001729Y007211D02*
X001790Y007211D01*
X001940Y006745D02*
X001957Y006745D01*
X001937Y006628D02*
X001823Y006628D01*
X001706Y006512D02*
X001948Y006512D01*
X001996Y006395D02*
X001622Y006395D01*
X001701Y006279D02*
X002111Y006279D01*
X002237Y006162D02*
X001735Y006162D01*
X001735Y006045D02*
X002120Y006045D01*
X002084Y005929D02*
X001690Y005929D01*
X001596Y005812D02*
X001985Y005812D01*
X001968Y005462D02*
X001546Y005462D01*
X001672Y005346D02*
X002043Y005346D01*
X002034Y004879D02*
X001663Y004879D01*
X001523Y004763D02*
X001965Y004763D01*
X001338Y005115D02*
X001336Y005117D01*
X001336Y006117D02*
X001340Y006121D01*
X001656Y008611D02*
X002744Y008611D01*
X002583Y008727D02*
X001656Y008727D01*
X001656Y008844D02*
X002539Y008844D01*
X002542Y008961D02*
X001656Y008961D01*
X001656Y009077D02*
X002598Y009077D01*
X002558Y009145D02*
X002671Y009257D01*
X002731Y009404D01*
X002731Y009563D01*
X002671Y009709D01*
X002558Y009822D01*
X002412Y009882D01*
X002253Y009882D01*
X002106Y009822D01*
X001994Y009709D01*
X001933Y009563D01*
X001933Y009404D01*
X001994Y009257D01*
X002106Y009145D01*
X002253Y009084D01*
X002412Y009084D01*
X002558Y009145D01*
X002607Y009194D02*
X002772Y009194D01*
X002693Y009310D02*
X002855Y009310D01*
X002855Y009427D02*
X002731Y009427D01*
X002731Y009544D02*
X002855Y009544D01*
X002833Y009660D02*
X002691Y009660D01*
X002716Y009777D02*
X002603Y009777D01*
X002600Y009893D02*
X001727Y009893D01*
X001731Y010010D02*
X002483Y010010D01*
X002150Y010127D02*
X001705Y010127D01*
X001637Y010243D02*
X002008Y010243D01*
X002062Y009777D02*
X001679Y009777D01*
X001583Y009660D02*
X001974Y009660D01*
X001933Y009544D02*
X001684Y009544D01*
X001716Y009427D02*
X001933Y009427D01*
X001972Y009310D02*
X001701Y009310D01*
X001656Y009194D02*
X002057Y009194D01*
X003287Y010943D02*
X000318Y010943D01*
X000318Y011060D02*
X003170Y011060D01*
X003112Y011118D02*
X003112Y011118D01*
X003053Y011176D02*
X000318Y011176D01*
X000318Y011293D02*
X002879Y011293D01*
X002874Y011409D02*
X002327Y011409D01*
X002273Y011355D02*
X002127Y011295D01*
X001970Y011295D01*
X001825Y011355D01*
X001714Y011466D01*
X001654Y011611D01*
X001654Y011769D01*
X001714Y011914D01*
X001825Y012025D01*
X001970Y012085D01*
X002127Y012085D01*
X002273Y012025D01*
X002384Y011914D01*
X002444Y011769D01*
X002444Y011611D01*
X002384Y011466D01*
X002273Y011355D01*
X002409Y011526D02*
X002874Y011526D01*
X002874Y011643D02*
X002444Y011643D01*
X002444Y011759D02*
X002874Y011759D01*
X002904Y011876D02*
X002400Y011876D01*
X002305Y011992D02*
X002973Y011992D01*
X002968Y012109D02*
X000318Y012109D01*
X000318Y011992D02*
X001792Y011992D01*
X001698Y011876D02*
X000318Y011876D01*
X000318Y011759D02*
X001654Y011759D01*
X001654Y011643D02*
X000318Y011643D01*
X000318Y011526D02*
X001689Y011526D01*
X001770Y011409D02*
X000318Y011409D01*
X000318Y012226D02*
X002890Y012226D01*
X002890Y012342D02*
X000318Y012342D01*
X000318Y012459D02*
X002204Y012459D01*
X002253Y012438D02*
X002412Y012438D01*
X002558Y012499D01*
X002671Y012611D01*
X002731Y012758D01*
X002731Y012917D01*
X002671Y013064D01*
X002558Y013176D01*
X002412Y013237D01*
X002253Y013237D01*
X002106Y013176D01*
X001994Y013064D01*
X001933Y012917D01*
X001933Y012758D01*
X001994Y012611D01*
X002106Y012499D01*
X002253Y012438D01*
X002461Y012459D02*
X002890Y012459D01*
X002890Y012576D02*
X002635Y012576D01*
X002704Y012692D02*
X002890Y012692D01*
X002890Y012809D02*
X002731Y012809D01*
X002728Y012925D02*
X002890Y012925D01*
X002960Y013042D02*
X002680Y013042D01*
X002576Y013159D02*
X007639Y013159D01*
X007639Y013275D02*
X001731Y013275D01*
X001731Y013258D02*
X001671Y013111D01*
X001558Y012999D01*
X001412Y012938D01*
X001253Y012938D01*
X001106Y012999D01*
X000994Y013111D01*
X000933Y013258D01*
X000933Y013417D01*
X000994Y013564D01*
X001106Y013676D01*
X001253Y013737D01*
X001412Y013737D01*
X001558Y013676D01*
X001671Y013564D01*
X001731Y013417D01*
X001731Y013258D01*
X001690Y013159D02*
X002089Y013159D01*
X001985Y013042D02*
X001601Y013042D01*
X001937Y012925D02*
X000318Y012925D01*
X000318Y012809D02*
X001933Y012809D01*
X001961Y012692D02*
X000318Y012692D01*
X000318Y012576D02*
X002030Y012576D01*
X001731Y013392D02*
X002414Y013392D01*
X002429Y013385D02*
X002830Y013385D01*
X002869Y013346D01*
X003693Y013346D01*
X003774Y013428D01*
X003774Y013936D01*
X003693Y014018D01*
X002869Y014018D01*
X002830Y013979D01*
X002706Y013979D01*
X002671Y014064D01*
X002558Y014176D01*
X002412Y014237D01*
X002253Y014237D01*
X002106Y014176D01*
X001994Y014064D01*
X001933Y013917D01*
X001933Y013758D01*
X001994Y013611D01*
X002106Y013499D01*
X002253Y013438D01*
X002312Y013438D01*
X002320Y013431D01*
X002429Y013385D01*
X002097Y013508D02*
X001693Y013508D01*
X001609Y013625D02*
X001988Y013625D01*
X001940Y013742D02*
X000318Y013742D01*
X000318Y013858D02*
X001933Y013858D01*
X001957Y013975D02*
X000318Y013975D01*
X000318Y014091D02*
X002022Y014091D01*
X002184Y014208D02*
X000318Y014208D01*
X000318Y014325D02*
X005003Y014325D01*
X004979Y014334D02*
X005096Y014286D01*
X005222Y014286D01*
X005339Y014334D01*
X005428Y014424D01*
X005476Y014540D01*
X005476Y014666D01*
X005428Y014783D01*
X005339Y014872D01*
X005222Y014920D01*
X005206Y014920D01*
X005124Y015002D01*
X005029Y015042D01*
X004735Y015042D01*
X004735Y015149D01*
X004654Y015231D01*
X003751Y015231D01*
X003670Y015149D01*
X003670Y015120D01*
X002869Y015120D01*
X002788Y015039D01*
X002788Y014530D01*
X002869Y014448D01*
X003670Y014448D01*
X003670Y014443D01*
X003751Y014362D01*
X004654Y014362D01*
X004735Y014443D01*
X004735Y014527D01*
X004847Y014527D01*
X004890Y014424D01*
X004979Y014334D01*
X004883Y014441D02*
X004733Y014441D01*
X005094Y014014D02*
X005207Y014127D01*
X005353Y014187D01*
X005512Y014187D01*
X005659Y014127D01*
X005771Y014014D01*
X005832Y013868D01*
X005832Y013709D01*
X005771Y013562D01*
X005659Y013450D01*
X005512Y013389D01*
X005353Y013389D01*
X005207Y013450D01*
X005094Y013562D01*
X005034Y013709D01*
X005034Y013868D01*
X005094Y014014D01*
X005078Y013975D02*
X003736Y013975D01*
X003774Y013858D02*
X005034Y013858D01*
X005034Y013742D02*
X003774Y013742D01*
X003774Y013625D02*
X005068Y013625D01*
X005148Y013508D02*
X003774Y013508D01*
X003739Y013392D02*
X005347Y013392D01*
X005518Y013392D02*
X006347Y013392D01*
X006353Y013389D02*
X006512Y013389D01*
X006659Y013450D01*
X006771Y013562D01*
X006832Y013709D01*
X006832Y013868D01*
X006771Y014014D01*
X006659Y014127D01*
X006512Y014187D01*
X006353Y014187D01*
X006207Y014127D01*
X006094Y014014D01*
X006034Y013868D01*
X006034Y013709D01*
X006094Y013562D01*
X006207Y013450D01*
X006353Y013389D01*
X006518Y013392D02*
X007639Y013392D01*
X007639Y013508D02*
X006717Y013508D01*
X006797Y013625D02*
X007639Y013625D01*
X007414Y013742D02*
X006832Y013742D01*
X006832Y013858D02*
X007304Y013858D01*
X007256Y013975D02*
X006787Y013975D01*
X006694Y014091D02*
X007248Y014091D01*
X007272Y014208D02*
X002480Y014208D01*
X002643Y014091D02*
X005171Y014091D01*
X005315Y014325D02*
X007337Y014325D01*
X007503Y014441D02*
X007138Y014441D01*
X007159Y014450D02*
X007271Y014562D01*
X007332Y014709D01*
X007332Y014868D01*
X007271Y015014D01*
X007159Y015127D01*
X007012Y015187D01*
X006853Y015187D01*
X006707Y015127D01*
X006594Y015014D01*
X006534Y014868D01*
X006534Y014709D01*
X006594Y014562D01*
X006707Y014450D01*
X006853Y014389D01*
X007012Y014389D01*
X007159Y014450D01*
X007267Y014558D02*
X007639Y014558D01*
X007639Y014675D02*
X007317Y014675D01*
X007332Y014791D02*
X007639Y014791D01*
X007639Y014908D02*
X007315Y014908D01*
X007261Y015024D02*
X007639Y015024D01*
X007639Y015141D02*
X007124Y015141D01*
X006741Y015141D02*
X006124Y015141D01*
X006159Y015127D02*
X006012Y015187D01*
X005853Y015187D01*
X005707Y015127D01*
X005594Y015014D01*
X005534Y014868D01*
X005534Y014709D01*
X005594Y014562D01*
X005707Y014450D01*
X005853Y014389D01*
X006012Y014389D01*
X006159Y014450D01*
X006271Y014562D01*
X006332Y014709D01*
X006332Y014868D01*
X006271Y015014D01*
X006159Y015127D01*
X006261Y015024D02*
X006604Y015024D01*
X006550Y014908D02*
X006315Y014908D01*
X006332Y014791D02*
X006534Y014791D01*
X006548Y014675D02*
X006317Y014675D01*
X006267Y014558D02*
X006599Y014558D01*
X006728Y014441D02*
X006138Y014441D01*
X006171Y014091D02*
X005694Y014091D01*
X005787Y013975D02*
X006078Y013975D01*
X006034Y013858D02*
X005832Y013858D01*
X005832Y013742D02*
X006034Y013742D01*
X006068Y013625D02*
X005797Y013625D01*
X005717Y013508D02*
X006148Y013508D01*
X005728Y014441D02*
X005435Y014441D01*
X005476Y014558D02*
X005599Y014558D01*
X005548Y014675D02*
X005473Y014675D01*
X005420Y014791D02*
X005534Y014791D01*
X005550Y014908D02*
X005253Y014908D01*
X005071Y015024D02*
X005604Y015024D01*
X005741Y015141D02*
X004735Y015141D01*
X003670Y015141D02*
X002438Y015141D01*
X002444Y015127D02*
X002384Y015272D01*
X002273Y015383D01*
X002127Y015443D01*
X001970Y015443D01*
X001825Y015383D01*
X001714Y015272D01*
X001654Y015127D01*
X001654Y014970D01*
X001714Y014824D01*
X001825Y014713D01*
X001970Y014653D01*
X002127Y014653D01*
X002273Y014713D01*
X002384Y014824D01*
X002444Y014970D01*
X002444Y015127D01*
X002444Y015024D02*
X002788Y015024D01*
X002788Y014908D02*
X002418Y014908D01*
X002351Y014791D02*
X002788Y014791D01*
X002788Y014675D02*
X002180Y014675D01*
X001918Y014675D02*
X000318Y014675D01*
X000318Y014791D02*
X001747Y014791D01*
X001679Y014908D02*
X000318Y014908D01*
X000318Y015024D02*
X001654Y015024D01*
X001659Y015141D02*
X000318Y015141D01*
X000318Y015258D02*
X001708Y015258D01*
X001816Y015374D02*
X000318Y015374D01*
X000318Y015491D02*
X007639Y015491D01*
X007639Y015607D02*
X000318Y015607D01*
X000318Y015724D02*
X000945Y015724D01*
X000893Y015745D02*
X001183Y015625D01*
X001497Y015625D01*
X001787Y015745D01*
X002009Y015967D01*
X002129Y016257D01*
X002129Y016571D01*
X002009Y016861D01*
X001787Y017083D01*
X001497Y017203D01*
X001183Y017203D01*
X000893Y017083D01*
X000671Y016861D01*
X000551Y016571D01*
X000551Y016257D01*
X000671Y015967D01*
X000893Y015745D01*
X000798Y015841D02*
X000318Y015841D01*
X000318Y015957D02*
X000681Y015957D01*
X000627Y016074D02*
X000318Y016074D01*
X000318Y016190D02*
X000579Y016190D01*
X000551Y016307D02*
X000318Y016307D01*
X000318Y016424D02*
X000551Y016424D01*
X000551Y016540D02*
X000318Y016540D01*
X000318Y016657D02*
X000587Y016657D01*
X000635Y016774D02*
X000318Y016774D01*
X000318Y016890D02*
X000700Y016890D01*
X000817Y017007D02*
X000318Y017007D01*
X000318Y017123D02*
X000990Y017123D01*
X000318Y017240D02*
X007639Y017240D01*
X007639Y017357D02*
X000318Y017357D01*
X001690Y017123D02*
X007639Y017123D01*
X007639Y017007D02*
X001864Y017007D01*
X001980Y016890D02*
X007639Y016890D01*
X007639Y016774D02*
X002045Y016774D01*
X002094Y016657D02*
X007639Y016657D01*
X007639Y016540D02*
X002129Y016540D01*
X002129Y016424D02*
X007639Y016424D01*
X007639Y016307D02*
X002129Y016307D01*
X002101Y016190D02*
X007639Y016190D01*
X007639Y016074D02*
X002053Y016074D01*
X001999Y015957D02*
X007639Y015957D01*
X007639Y015841D02*
X001882Y015841D01*
X001735Y015724D02*
X007639Y015724D01*
X007639Y015374D02*
X002282Y015374D01*
X002390Y015258D02*
X007639Y015258D01*
X008033Y015258D02*
X016535Y015258D01*
X016535Y015374D02*
X008033Y015374D01*
X008033Y015491D02*
X016535Y015491D01*
X016535Y015607D02*
X008033Y015607D01*
X008033Y015724D02*
X015118Y015724D01*
X015066Y015745D02*
X015356Y015625D01*
X015670Y015625D01*
X015960Y015745D01*
X016182Y015967D01*
X016302Y016257D01*
X016302Y016571D01*
X016182Y016861D01*
X015960Y017083D01*
X015670Y017203D01*
X015356Y017203D01*
X015066Y017083D01*
X014845Y016861D01*
X014724Y016571D01*
X014724Y016257D01*
X014845Y015967D01*
X015066Y015745D01*
X014971Y015841D02*
X008033Y015841D01*
X008033Y015957D02*
X014855Y015957D01*
X014800Y016074D02*
X008033Y016074D01*
X008033Y016190D02*
X014752Y016190D01*
X014724Y016307D02*
X008033Y016307D01*
X008033Y016424D02*
X014724Y016424D01*
X014724Y016540D02*
X008033Y016540D01*
X008033Y016657D02*
X014760Y016657D01*
X014808Y016774D02*
X008033Y016774D01*
X008033Y016890D02*
X014873Y016890D01*
X014990Y017007D02*
X008033Y017007D01*
X008033Y017123D02*
X015163Y017123D01*
X015863Y017123D02*
X016535Y017123D01*
X016535Y017007D02*
X016037Y017007D01*
X016153Y016890D02*
X016535Y016890D01*
X016535Y016774D02*
X016219Y016774D01*
X016267Y016657D02*
X016535Y016657D01*
X016535Y016540D02*
X016302Y016540D01*
X016302Y016424D02*
X016535Y016424D01*
X016535Y016307D02*
X016302Y016307D01*
X016275Y016190D02*
X016535Y016190D01*
X016535Y016074D02*
X016226Y016074D01*
X016172Y015957D02*
X016535Y015957D01*
X016535Y015841D02*
X016055Y015841D01*
X015909Y015724D02*
X016535Y015724D01*
X016535Y015141D02*
X008033Y015141D01*
X008033Y015024D02*
X016535Y015024D01*
X016535Y014908D02*
X008033Y014908D01*
X008033Y014791D02*
X016535Y014791D01*
X016535Y014675D02*
X008033Y014675D01*
X008033Y014558D02*
X016535Y014558D01*
X016535Y014441D02*
X008033Y014441D01*
X008033Y014325D02*
X016535Y014325D01*
X016535Y014208D02*
X008033Y014208D01*
X008039Y014091D02*
X009279Y014091D01*
X009303Y014115D02*
X009151Y013964D01*
X009069Y013766D01*
X009069Y013551D01*
X009151Y013353D01*
X009303Y013201D01*
X009501Y013119D01*
X009715Y013119D01*
X009913Y013201D01*
X010065Y013353D01*
X010147Y013551D01*
X010147Y013766D01*
X010065Y013964D01*
X009913Y014115D01*
X009715Y014197D01*
X009501Y014197D01*
X009303Y014115D01*
X009162Y013975D02*
X008033Y013975D01*
X008033Y013858D02*
X009107Y013858D01*
X009069Y013742D02*
X008033Y013742D01*
X008033Y013625D02*
X009069Y013625D01*
X009087Y013508D02*
X008033Y013508D01*
X008033Y013392D02*
X009135Y013392D01*
X009229Y013275D02*
X008033Y013275D01*
X008033Y013159D02*
X009406Y013159D01*
X009523Y012925D02*
X008033Y012925D01*
X008033Y012809D02*
X009407Y012809D01*
X009290Y012692D02*
X008033Y012692D01*
X008033Y012576D02*
X009173Y012576D01*
X009057Y012459D02*
X008033Y012459D01*
X008033Y012342D02*
X008940Y012342D01*
X008824Y012226D02*
X008033Y012226D01*
X008033Y012109D02*
X008707Y012109D01*
X008590Y011992D02*
X008033Y011992D01*
X008033Y011876D02*
X008544Y011876D01*
X008544Y011759D02*
X008033Y011759D01*
X008033Y011643D02*
X008544Y011643D01*
X008544Y011526D02*
X008033Y011526D01*
X008033Y011409D02*
X008544Y011409D01*
X008544Y011293D02*
X008033Y011293D01*
X008033Y011176D02*
X008544Y011176D01*
X008544Y011060D02*
X008033Y011060D01*
X008033Y010943D02*
X008544Y010943D01*
X008544Y010826D02*
X008033Y010826D01*
X008033Y010710D02*
X008544Y010710D01*
X008544Y010593D02*
X008033Y010593D01*
X008033Y010477D02*
X008544Y010477D01*
X008544Y010360D02*
X008033Y010360D01*
X008050Y010243D02*
X008544Y010243D01*
X008544Y010127D02*
X008078Y010127D01*
X008078Y010010D02*
X008544Y010010D01*
X008544Y009893D02*
X008078Y009893D01*
X008078Y009777D02*
X008544Y009777D01*
X008544Y009660D02*
X008051Y009660D01*
X008544Y009544D02*
X006498Y009544D01*
X006498Y009427D02*
X008544Y009427D01*
X008544Y009310D02*
X006498Y009310D01*
X006498Y009194D02*
X008430Y009194D01*
X008751Y008844D02*
X014429Y008844D01*
X014429Y008727D02*
X009369Y008727D01*
X009451Y008611D02*
X014426Y008611D01*
X014426Y008494D02*
X009472Y008494D01*
X009803Y008378D02*
X014426Y008378D01*
X014426Y008261D02*
X009920Y008261D01*
X010036Y008144D02*
X014426Y008144D01*
X014761Y008347D02*
X014761Y008367D01*
X015287Y008144D02*
X016535Y008144D01*
X016535Y008028D02*
X015373Y008028D01*
X015397Y007911D02*
X016535Y007911D01*
X016535Y007795D02*
X015374Y007795D01*
X015288Y007678D02*
X016535Y007678D01*
X016535Y007561D02*
X015326Y007561D01*
X015378Y007445D02*
X016535Y007445D01*
X016535Y007328D02*
X015397Y007328D01*
X015369Y007211D02*
X016535Y007211D01*
X016535Y007095D02*
X015326Y007095D01*
X014491Y006978D02*
X016535Y006978D01*
X016535Y006862D02*
X014491Y006862D01*
X014491Y006745D02*
X016535Y006745D01*
X016535Y006628D02*
X014489Y006628D01*
X014372Y006512D02*
X016535Y006512D01*
X016535Y006395D02*
X014255Y006395D01*
X014139Y006279D02*
X016535Y006279D01*
X016535Y006162D02*
X010357Y006162D01*
X010357Y006045D02*
X016535Y006045D01*
X016535Y005929D02*
X014546Y005929D01*
X014662Y005812D02*
X016535Y005812D01*
X016535Y005696D02*
X014715Y005696D01*
X014738Y005579D02*
X016535Y005579D01*
X016535Y005462D02*
X014738Y005462D01*
X014692Y005346D02*
X016535Y005346D01*
X016535Y005229D02*
X014607Y005229D01*
X014419Y005112D02*
X016535Y005112D01*
X016535Y004996D02*
X012740Y004996D01*
X012624Y005112D02*
X014150Y005112D01*
X013961Y005229D02*
X012507Y005229D01*
X012390Y005346D02*
X013877Y005346D01*
X013830Y005462D02*
X012274Y005462D01*
X012157Y005579D02*
X013830Y005579D01*
X014023Y005929D02*
X010357Y005929D01*
X009882Y005929D02*
X009473Y005929D01*
X009473Y006045D02*
X009882Y006045D01*
X009882Y006162D02*
X009413Y006162D01*
X009392Y006183D02*
X009060Y006183D01*
X008979Y006102D01*
X008979Y005570D01*
X008919Y005510D01*
X008886Y005510D01*
X008871Y005525D01*
X008762Y005570D01*
X008741Y005570D01*
X008725Y005586D01*
X008725Y006102D01*
X008644Y006183D01*
X008312Y006183D01*
X008231Y006102D01*
X008231Y005514D01*
X008240Y005504D01*
X008240Y005399D01*
X008405Y005234D01*
X008405Y005213D01*
X008427Y005160D01*
X008312Y005160D01*
X008231Y005078D01*
X008231Y004491D01*
X008238Y004483D01*
X008233Y004420D01*
X008240Y004412D01*
X008240Y004401D01*
X008303Y004338D01*
X008359Y004273D01*
X008359Y003963D01*
X008427Y003895D01*
X007915Y003895D01*
X007915Y006178D01*
X006507Y006178D01*
X006498Y006187D01*
X006498Y006572D01*
X007358Y006572D01*
X007390Y006604D01*
X007584Y006604D01*
X007653Y006535D01*
X008193Y006535D01*
X008274Y006617D01*
X008274Y006662D01*
X008550Y006938D01*
X008550Y007067D01*
X008567Y007067D01*
X008622Y007122D01*
X009646Y007122D01*
X009646Y006552D01*
X009882Y006316D01*
X009882Y005746D01*
X009668Y005746D01*
X009587Y005665D01*
X009587Y005141D01*
X009473Y005035D01*
X009473Y005078D01*
X009392Y005160D01*
X009240Y005160D01*
X009255Y005174D01*
X009255Y005174D01*
X009463Y005383D01*
X009463Y005504D01*
X009473Y005514D01*
X009473Y006102D01*
X009392Y006183D01*
X009039Y006162D02*
X008665Y006162D01*
X008725Y006045D02*
X008979Y006045D01*
X008979Y005929D02*
X008725Y005929D01*
X008725Y005812D02*
X008979Y005812D01*
X008979Y005696D02*
X008725Y005696D01*
X008732Y005579D02*
X008979Y005579D01*
X009310Y005229D02*
X009587Y005229D01*
X009587Y005346D02*
X009426Y005346D01*
X009463Y005462D02*
X009587Y005462D01*
X009587Y005579D02*
X009473Y005579D01*
X009473Y005696D02*
X009618Y005696D01*
X009473Y005812D02*
X009882Y005812D01*
X009882Y006279D02*
X006498Y006279D01*
X006498Y006395D02*
X009803Y006395D01*
X009686Y006512D02*
X006498Y006512D01*
X006676Y005696D02*
X007521Y005696D01*
X007521Y005579D02*
X006676Y005579D01*
X006676Y005462D02*
X007521Y005462D01*
X007521Y005346D02*
X006676Y005346D01*
X006676Y005229D02*
X007521Y005229D01*
X007521Y005112D02*
X006676Y005112D01*
X006676Y004996D02*
X007521Y004996D01*
X007521Y004879D02*
X006676Y004879D01*
X006676Y004763D02*
X007521Y004763D01*
X007521Y004646D02*
X006676Y004646D01*
X006753Y004529D02*
X007521Y004529D01*
X007521Y004413D02*
X006855Y004413D01*
X006912Y004296D02*
X007521Y004296D01*
X007521Y004180D02*
X006912Y004180D01*
X006912Y004063D02*
X007521Y004063D01*
X007521Y003946D02*
X006912Y003946D01*
X006912Y003830D02*
X007521Y003830D01*
X007521Y003713D02*
X006891Y003713D01*
X006799Y003597D02*
X007521Y003597D01*
X007915Y003946D02*
X008375Y003946D01*
X008359Y004063D02*
X007915Y004063D01*
X007915Y004180D02*
X008359Y004180D01*
X008339Y004296D02*
X007915Y004296D01*
X007915Y004413D02*
X008239Y004413D01*
X008231Y004529D02*
X007915Y004529D01*
X007915Y004646D02*
X008231Y004646D01*
X008231Y004763D02*
X007915Y004763D01*
X007915Y004879D02*
X008231Y004879D01*
X008231Y004996D02*
X007915Y004996D01*
X007915Y005112D02*
X008265Y005112D01*
X008405Y005229D02*
X007915Y005229D01*
X007915Y005346D02*
X008293Y005346D01*
X008240Y005462D02*
X007915Y005462D01*
X007915Y005579D02*
X008231Y005579D01*
X008231Y005696D02*
X007915Y005696D01*
X007915Y005812D02*
X008231Y005812D01*
X008231Y005929D02*
X007915Y005929D01*
X007915Y006045D02*
X008231Y006045D01*
X008291Y006162D02*
X007915Y006162D01*
X008274Y006628D02*
X009646Y006628D01*
X009646Y006745D02*
X008357Y006745D01*
X008474Y006862D02*
X009646Y006862D01*
X009646Y006978D02*
X008550Y006978D01*
X008595Y007095D02*
X009646Y007095D01*
X010416Y007095D02*
X013681Y007095D01*
X013681Y007211D02*
X010416Y007211D01*
X010416Y007328D02*
X013681Y007328D01*
X013681Y007445D02*
X010416Y007445D01*
X010416Y007561D02*
X013681Y007561D01*
X013681Y007678D02*
X010416Y007678D01*
X010386Y007795D02*
X013681Y007795D01*
X013749Y007911D02*
X010269Y007911D01*
X010153Y008028D02*
X013866Y008028D01*
X014254Y007324D02*
X014320Y007336D01*
X013681Y006978D02*
X010416Y006978D01*
X009557Y005112D02*
X009439Y005112D01*
X011436Y004763D02*
X011669Y004763D01*
X012044Y004296D02*
X013910Y004296D01*
X014232Y004646D02*
X016535Y004646D01*
X016535Y004529D02*
X014348Y004529D01*
X014465Y004413D02*
X016535Y004413D01*
X016535Y004296D02*
X014530Y004296D01*
X014530Y004180D02*
X016535Y004180D01*
X016535Y004063D02*
X014535Y004063D01*
X014689Y003946D02*
X016535Y003946D01*
X016535Y003830D02*
X014773Y003830D01*
X014821Y003713D02*
X016535Y003713D01*
X016535Y003597D02*
X014832Y003597D01*
X014832Y003480D02*
X016535Y003480D01*
X016535Y003363D02*
X014787Y003363D01*
X014722Y003247D02*
X016535Y003247D01*
X016535Y003130D02*
X014606Y003130D01*
X014115Y004763D02*
X016535Y004763D01*
X016535Y004879D02*
X012857Y004879D01*
X012376Y003946D02*
X011494Y003946D01*
X009138Y002780D02*
X016535Y002780D01*
X016535Y002664D02*
X009143Y002664D01*
X009147Y002547D02*
X016535Y002547D01*
X016535Y002430D02*
X009151Y002430D01*
X009156Y002314D02*
X016535Y002314D01*
X016535Y002197D02*
X009160Y002197D01*
X009165Y002081D02*
X016535Y002081D01*
X016535Y008261D02*
X015363Y008261D01*
X015397Y008378D02*
X016535Y008378D01*
X016535Y008494D02*
X015384Y008494D01*
X015312Y008611D02*
X016535Y008611D01*
X016535Y008727D02*
X015314Y008727D01*
X015385Y008844D02*
X016535Y008844D01*
X016535Y008961D02*
X015397Y008961D01*
X015363Y009077D02*
X016535Y009077D01*
X016535Y009194D02*
X015250Y009194D01*
X015046Y009310D02*
X016535Y009310D01*
X016535Y009427D02*
X009019Y009427D01*
X009019Y009310D02*
X014504Y009310D01*
X014429Y009194D02*
X009019Y009194D01*
X008985Y009077D02*
X014429Y009077D01*
X014429Y008961D02*
X008868Y008961D01*
X009019Y009544D02*
X016535Y009544D01*
X016535Y009660D02*
X009019Y009660D01*
X009019Y009777D02*
X016535Y009777D01*
X016535Y009893D02*
X009019Y009893D01*
X009019Y010010D02*
X016535Y010010D01*
X016535Y010127D02*
X009019Y010127D01*
X009019Y010243D02*
X016535Y010243D01*
X016535Y010360D02*
X009019Y010360D01*
X009019Y010477D02*
X016535Y010477D01*
X016535Y010593D02*
X009019Y010593D01*
X009019Y010710D02*
X014386Y010710D01*
X014292Y010804D02*
X014292Y010804D01*
X014269Y010826D02*
X009019Y010826D01*
X009019Y010943D02*
X014174Y010943D01*
X014174Y011060D02*
X009019Y011060D01*
X009019Y011176D02*
X014174Y011176D01*
X014174Y011293D02*
X009019Y011293D01*
X009019Y011409D02*
X014174Y011409D01*
X014174Y011526D02*
X009019Y011526D01*
X009019Y011643D02*
X014174Y011643D01*
X014174Y011759D02*
X009029Y011759D01*
X009145Y011876D02*
X014174Y011876D01*
X014174Y011992D02*
X009262Y011992D01*
X009379Y012109D02*
X014174Y012109D01*
X014169Y012226D02*
X009495Y012226D01*
X009612Y012342D02*
X014053Y012342D01*
X013936Y012459D02*
X009729Y012459D01*
X009845Y012576D02*
X013819Y012576D01*
X014141Y012925D02*
X016535Y012925D01*
X016535Y012809D02*
X014258Y012809D01*
X014375Y012692D02*
X016535Y012692D01*
X016535Y012576D02*
X014491Y012576D01*
X014608Y012459D02*
X016535Y012459D01*
X016535Y012342D02*
X014649Y012342D01*
X014649Y012226D02*
X016535Y012226D01*
X016535Y012109D02*
X014649Y012109D01*
X014649Y011992D02*
X016535Y011992D01*
X016535Y011876D02*
X014649Y011876D01*
X014649Y011759D02*
X016535Y011759D01*
X016535Y011643D02*
X014649Y011643D01*
X014649Y011526D02*
X016535Y011526D01*
X016535Y011409D02*
X014649Y011409D01*
X014649Y011293D02*
X016535Y011293D01*
X016535Y011176D02*
X014843Y011176D01*
X014983Y011060D02*
X016535Y011060D01*
X016535Y010943D02*
X015023Y010943D01*
X015016Y010826D02*
X016535Y010826D01*
X016535Y010710D02*
X014954Y010710D01*
X014767Y008973D02*
X014775Y008965D01*
X014025Y013042D02*
X016535Y013042D01*
X016535Y013159D02*
X011483Y013159D01*
X011443Y013119D02*
X011525Y013201D01*
X011525Y014116D01*
X011443Y014197D01*
X010528Y014197D01*
X010447Y014116D01*
X010447Y013201D01*
X010528Y013119D01*
X011443Y013119D01*
X011525Y013275D02*
X016535Y013275D01*
X016535Y013392D02*
X011525Y013392D01*
X011525Y013508D02*
X016535Y013508D01*
X016535Y013625D02*
X011525Y013625D01*
X011525Y013742D02*
X016535Y013742D01*
X016535Y013858D02*
X011525Y013858D01*
X011525Y013975D02*
X016535Y013975D01*
X016535Y014091D02*
X011525Y014091D01*
X010489Y013159D02*
X009810Y013159D01*
X009640Y013042D02*
X008033Y013042D01*
X007114Y013042D02*
X003492Y013042D01*
X003562Y012925D02*
X007044Y012925D01*
X007044Y012809D02*
X003562Y012809D01*
X003562Y012692D02*
X007044Y012692D01*
X007044Y012576D02*
X003562Y012576D01*
X003562Y012459D02*
X007044Y012459D01*
X007044Y012342D02*
X003562Y012342D01*
X003562Y012226D02*
X007044Y012226D01*
X007122Y012109D02*
X003484Y012109D01*
X003448Y011992D02*
X007142Y011992D01*
X007380Y011710D02*
X007423Y011627D01*
X007403Y011607D01*
X006418Y011759D02*
X005550Y011759D01*
X005609Y011643D02*
X006362Y011643D01*
X006246Y011526D02*
X005614Y011526D01*
X005571Y011409D02*
X006129Y011409D01*
X006012Y011293D02*
X005420Y011293D01*
X005326Y011060D02*
X005779Y011060D01*
X005896Y011176D02*
X005210Y011176D01*
X005443Y010943D02*
X005663Y010943D01*
X004945Y011643D02*
X004743Y011643D01*
X004627Y011759D02*
X005062Y011759D01*
X004185Y011876D02*
X006418Y011876D01*
X005296Y009077D02*
X004971Y009077D01*
X005035Y008961D02*
X005296Y008961D01*
X005296Y008844D02*
X005152Y008844D01*
X005268Y008727D02*
X005296Y008727D01*
X004805Y008855D02*
X004573Y008855D01*
X004481Y008841D01*
X004455Y008816D01*
X004726Y008383D02*
X004689Y008341D01*
X004481Y008341D01*
X004133Y008341D01*
X004481Y007841D02*
X004696Y007841D01*
X004726Y007871D01*
X004726Y007359D02*
X004787Y007341D01*
X004481Y007341D01*
X004153Y007341D01*
X004096Y007320D01*
X006901Y007841D02*
X006910Y007832D01*
X007683Y007599D02*
X007643Y007422D01*
X008313Y007422D02*
X008368Y007359D01*
X005098Y003713D02*
X005077Y003713D01*
X005132Y003597D02*
X004961Y003597D01*
X004844Y003480D02*
X005239Y003480D01*
X004284Y003247D02*
X001856Y003247D01*
X001859Y003245D02*
X001714Y003306D01*
X001557Y003306D01*
X001412Y003245D01*
X001300Y003134D01*
X001240Y002989D01*
X001240Y002832D01*
X001300Y002686D01*
X001412Y002575D01*
X001557Y002515D01*
X001714Y002515D01*
X001859Y002575D01*
X001971Y002686D01*
X002031Y002832D01*
X002031Y002989D01*
X001971Y003134D01*
X001859Y003245D01*
X001972Y003130D02*
X008742Y003130D01*
X008742Y003013D02*
X002021Y003013D01*
X002031Y002897D02*
X008742Y002897D01*
X008328Y002780D02*
X008257Y002780D01*
X008286Y002664D02*
X008300Y002664D01*
X008286Y002547D02*
X008300Y002547D01*
X008286Y002430D02*
X008300Y002430D01*
X008307Y002314D02*
X008279Y002314D01*
X008291Y002197D02*
X008326Y002197D01*
X008335Y002081D02*
X008282Y002081D01*
X007706Y002081D02*
X000318Y002081D01*
X000318Y002197D02*
X007696Y002197D01*
X007701Y002314D02*
X000318Y002314D01*
X000318Y002430D02*
X007693Y002430D01*
X007693Y002547D02*
X001791Y002547D01*
X001948Y002664D02*
X007693Y002664D01*
X007722Y002780D02*
X002009Y002780D01*
X001480Y002547D02*
X000318Y002547D01*
X000318Y002664D02*
X001323Y002664D01*
X001261Y002780D02*
X000318Y002780D01*
X000318Y002897D02*
X001240Y002897D01*
X001250Y003013D02*
X000318Y003013D01*
X000318Y003130D02*
X001299Y003130D01*
X001415Y003247D02*
X000318Y003247D01*
X000318Y003363D02*
X004208Y003363D01*
X004192Y003480D02*
X000318Y003480D01*
X000318Y003597D02*
X004224Y003597D01*
X003574Y011876D02*
X003516Y011876D01*
X003210Y012564D02*
X003226Y012580D01*
X003672Y014441D02*
X000318Y014441D01*
X000318Y014558D02*
X002788Y014558D01*
X001055Y013625D02*
X000318Y013625D01*
X000318Y013508D02*
X000971Y013508D01*
X000933Y013392D02*
X000318Y013392D01*
X000318Y013275D02*
X000933Y013275D01*
X000974Y013159D02*
X000318Y013159D01*
X000318Y013042D02*
X001063Y013042D01*
X008033Y017240D02*
X016535Y017240D01*
X016535Y017357D02*
X008033Y017357D01*
X009937Y014091D02*
X010447Y014091D01*
X010447Y013975D02*
X010054Y013975D01*
X010109Y013858D02*
X010447Y013858D01*
X010447Y013742D02*
X010147Y013742D01*
X010147Y013625D02*
X010447Y013625D01*
X010447Y013508D02*
X010129Y013508D01*
X010081Y013392D02*
X010447Y013392D01*
X010447Y013275D02*
X009987Y013275D01*
D33*
X009706Y008166D02*
X007698Y008166D01*
X007364Y007832D01*
X006910Y007832D01*
X004481Y007841D02*
X004274Y007635D01*
X003348Y007635D01*
X003033Y007359D01*
X003033Y006257D01*
X002797Y006021D01*
X002797Y005430D01*
X002482Y005115D01*
X001338Y005115D01*
X001340Y006121D02*
X001340Y006454D01*
X003151Y008265D01*
X003663Y008265D01*
X003860Y008462D01*
X003860Y008619D01*
X004057Y008816D01*
X004455Y008816D01*
X004133Y008341D02*
X004133Y008302D01*
X003781Y007950D01*
X003230Y007950D01*
X002757Y007477D01*
X002757Y006375D01*
X002336Y005954D01*
X002336Y005617D01*
X003072Y005902D02*
X003072Y005194D01*
X002496Y004617D01*
X002336Y004617D01*
X003072Y005902D02*
X003309Y006139D01*
X003309Y007162D01*
X003466Y007320D01*
X004096Y007320D01*
X009706Y008166D02*
X010198Y007674D01*
X010198Y006847D01*
X010317Y006729D01*
X013781Y006729D01*
X013899Y006847D01*
X013899Y007753D01*
X014057Y007910D01*
X015100Y007910D01*
D34*
X015100Y007340D02*
X014962Y007320D01*
X014966Y007320D01*
X014990Y007336D01*
D35*
X006754Y011627D02*
X006710Y011627D01*
X005553Y010469D01*
X005553Y009851D01*
X005553Y006847D01*
X005480Y006841D02*
X006419Y005902D01*
X006419Y004525D01*
X006655Y004249D01*
X006655Y003816D01*
X006419Y003580D01*
X006065Y003580D01*
X005480Y006841D02*
X004481Y006841D01*
X003809Y006841D01*
X002836Y008895D02*
X003112Y009170D01*
X003112Y009761D01*
X003072Y009761D01*
X003074Y009782D02*
X003600Y009782D01*
X003659Y009841D02*
X004481Y009841D01*
X005523Y009841D01*
X005553Y010469D02*
X004844Y011178D01*
X005238Y011572D01*
X005317Y011572D01*
X004844Y011178D02*
X004450Y011572D01*
X003880Y011572D01*
X002374Y010483D02*
X002332Y010483D01*
X002374Y010483D02*
X003072Y009784D01*
X005159Y014603D02*
X004978Y014784D01*
X004191Y014784D01*
X004202Y014796D01*
X004191Y014784D02*
X003281Y014784D01*
D36*
X003072Y009784D02*
X003074Y009782D01*
D37*
X005159Y014603D03*
D38*
X010631Y012044D03*
X010631Y011572D03*
X011104Y011572D03*
X011104Y012044D03*
X011576Y012044D03*
X011576Y011572D03*
X011576Y011099D03*
X011104Y011099D03*
X010631Y011099D03*
X010631Y010627D03*
X010631Y010154D03*
X011104Y010154D03*
X011104Y010627D03*
X011576Y010627D03*
X011576Y010154D03*
X011576Y009682D03*
X011104Y009682D03*
X010631Y009682D03*
X010631Y009210D03*
X010631Y008737D03*
X011104Y008737D03*
X011104Y009210D03*
X011576Y009210D03*
X011576Y008737D03*
X011576Y008265D03*
X011104Y008265D03*
X010631Y008265D03*
X010631Y007792D03*
X010631Y007320D03*
X011104Y007320D03*
X011104Y007792D03*
X011576Y007792D03*
X011576Y007320D03*
X012049Y007320D03*
X012049Y007792D03*
X012521Y007792D03*
X012521Y007320D03*
X012994Y007320D03*
X013466Y007320D03*
X013466Y007792D03*
X012994Y007792D03*
X012994Y008265D03*
X013466Y008265D03*
X013466Y008737D03*
X012994Y008737D03*
X012994Y009210D03*
X013466Y009210D03*
X013466Y009682D03*
X012994Y009682D03*
X012994Y010154D03*
X013466Y010154D03*
X013466Y010627D03*
X012994Y010627D03*
X012994Y011099D03*
X013466Y011099D03*
X013466Y011572D03*
X013466Y012044D03*
X012994Y012044D03*
X012994Y011572D03*
X012521Y011572D03*
X012521Y012044D03*
X012049Y012044D03*
X012049Y011572D03*
X012049Y011099D03*
X012049Y010627D03*
X012049Y010154D03*
X012049Y009682D03*
X012521Y009682D03*
X012521Y009210D03*
X012521Y008737D03*
X012049Y008737D03*
X012049Y009210D03*
X012049Y008265D03*
X012521Y008265D03*
X012521Y010154D03*
X012521Y010627D03*
X012521Y011099D03*
D39*
X003281Y013682D02*
X002488Y013682D01*
X002332Y013838D01*
M02*
